<svg t="1752337923728" class="icon" viewBox="0 0 1024 1024" version="1.1" xmlns="http://www.w3.org/2000/svg" p-id="42805" width="200" height="200"><path d="M417.399467 433.681067a17.066667 17.066667 0 0 0 7.765333-21.7088L405.589333 365.482667c-17.578667-41.796267-76.8-41.796267-94.378666 0L263.338667 479.232l-105.608534 55.748267c-36.4032 19.208533-36.4032 71.338667 0 90.555733L263.338667 681.301333l47.872 113.757867c17.578667 41.796267 76.8 41.796267 94.378666 0l47.872-113.757867 28.672-28.501333a17.152 17.152 0 0 0-6.621866-25.890133l-16.699734-7.594667a31.880533 31.880533 0 0 0-22.203733-1.553067l-20.411733 6.016a51.2 51.2 0 0 0-23.296 25.4208L358.4 731.195733l-34.5088-82.005333a51.2 51.2 0 0 0-23.296-25.429333L218.197333 580.266667l82.414934-43.502934a51.2 51.2 0 0 0 23.296-25.4208L358.4 429.3376l5.000533 11.886933a17.066667 17.066667 0 0 0 23.7056 8.4736l30.293334-16.017066z" p-id="42806"></path><path d="M592.802133 220.475733c17.578667-41.813333 76.8256-41.813333 94.395734 0l69.742933 165.9136 152.046933 80.341334c36.3776 19.217067 36.3776 71.3216 0 90.538666L756.9408 637.610667 687.189333 803.5328c-17.578667 41.813333-76.8256 41.813333-94.395733 0L523.0592 637.610667l-152.046933-80.341334c-36.3776-19.217067-36.3776-71.3216 0-90.538666l152.046933-80.341334 69.742933-165.922133zM640 284.347733l-56.3712 134.109867a51.2 51.2 0 0 1-23.278933 25.429333L431.4624 512l128.887467 68.104533a51.2 51.2 0 0 1 23.278933 25.429334L640 739.643733l56.3712-134.109866a51.2 51.2 0 0 1 23.278933-25.429334L848.5376 512l-128.887467-68.104533a51.2 51.2 0 0 1-23.278933-25.429334L640 284.356267zM360.516267 96.110933l-22.101334 57.002667-48.170666 27.5968c-11.52 6.6048-11.52 24.507733 0 31.112533l48.170666 27.5968 22.101334 57.002667c5.563733 14.370133 24.337067 14.370133 29.909333 0l22.0928-57.002667 48.170667-27.5968c11.52-6.6048 11.52-24.507733 0-31.112533l-48.170667-27.5968-22.101333-57.002667c-5.563733-14.370133-24.337067-14.370133-29.9008 0zM375.466667 118.058667l-17.860267 46.08a17.152 17.152 0 0 1-7.3728 8.7296L309.393067 196.266667l40.840533 23.3984c3.310933 1.902933 5.922133 4.983467 7.3728 8.738133l17.860267 46.08 17.860266-46.08c1.450667-3.754667 4.061867-6.8352 7.3728-8.738133L441.540267 196.266667l-40.840534-23.3984a17.152 17.152 0 0 1-7.3728-8.738134L375.466667 118.050133zM795.716267 727.5776c5.563733-14.370133 24.337067-14.370133 29.9008 0l22.101333 57.002667 48.170667 27.5968c11.528533 6.6048 11.528533 24.507733 0 31.112533l-48.170667 27.5968-22.101333 57.002667c-5.563733 14.370133-24.337067 14.370133-29.9008 0l-22.101334-57.002667-48.170666-27.5968c-11.52-6.6048-11.52-24.507733 0-31.112533l48.170666-27.5968 22.101334-57.002667zM810.666667 749.525333l-17.860267 46.08a17.152 17.152 0 0 1-7.3728 8.7296L744.593067 827.733333l40.840533 23.3984c3.310933 1.902933 5.922133 4.983467 7.3728 8.738134L810.666667 905.941333l17.860266-46.071466c1.450667-3.754667 4.061867-6.8352 7.3728-8.738134L876.740267 827.733333l-40.840534-23.3984a17.152 17.152 0 0 1-7.3728-8.738133L810.666667 749.5168z" p-id="42807"></path><path d="M357.6064 164.130133l17.860267-46.08 17.860266 46.08c1.450667 3.754667 4.061867 6.8352 7.3728 8.738134L441.540267 196.266667l-40.840534 23.3984a17.152 17.152 0 0 0-7.3728 8.738133L375.466667 274.4832l-17.860267-46.08a17.152 17.152 0 0 0-7.3728-8.738133L309.393067 196.266667l40.840533-23.3984a17.152 17.152 0 0 0 7.3728-8.738134zM792.8064 795.5968l17.860267-46.08 17.860266 46.08c1.450667 3.754667 4.061867 6.8352 7.3728 8.738133L876.740267 827.733333l-40.840534 23.3984a17.1264 17.1264 0 0 0-7.3728 8.738134L810.666667 905.941333l-17.860267-46.071466a17.1264 17.1264 0 0 0-7.3728-8.738134L744.593067 827.733333l40.840533-23.3984a17.152 17.152 0 0 0 7.3728-8.738133z" p-id="42808"></path></svg>