<svg t="1744044731872" class="icon" viewBox="0 0 1024 1024" version="1.1" xmlns="http://www.w3.org/2000/svg" p-id="6028" width="200" height="200"><path d="M916 84.2l-4.6-0.2H282.3c-21.2-0.1-38.9 16-41 37l-0.2 4.6v106.5H134.2c-21.1-0.1-38.9 15.9-41 37l-0.2 4.6v629.1c0 22.8 18.4 41.2 41.2 41.2h428.4c12.5 0 22.7-10.1 22.7-22.7 0-12.5-10.1-22.7-22.7-22.7H138.4V277.5h621.1v335.6c0 12.5 10.2 22.7 22.7 22.7s22.7-10.2 22.7-22.7V273.3c0.1-21.2-15.9-38.9-37-41l-4.6-0.2H286.5V129.4h621v483.7c0 12.5 10.2 22.7 22.7 22.7s22.7-10.1 22.7-22.7V125.2c0.2-21.1-15.9-38.9-36.9-41zM928.2 687.3c-13.7 0-24.8 11.1-24.8 24.8v207.1c0.3 13.7 11.6 24.6 25.3 24.3 13.3-0.3 24-11 24.3-24.3V712.1c0-13.7-11.1-24.8-24.8-24.8z" p-id="6029"></path><path d="M784.4 708.8c-5.5-14.6-18.8-24.8-34.4-26.3l-3.9-0.2c-17 0-32.3 10.6-38.2 26.5l-77.3 201.8c-4.9 12.6 1.3 26.8 13.9 31.7 12.6 4.9 26.8-1.3 31.7-13.9 0.1-0.2 0.2-0.5 0.2-0.7l16.3-45.9H798l17.6 46.4c3.6 9.5 12.7 15.8 22.9 15.8h0.4c13.5 0 24.5-11 24.5-24.5 0-3-0.6-6-1.7-8.9l-77.3-201.8z m-79.1 136l36.3-108c0.7-1.9 2.8-2.9 4.7-2.3 1.1 0.4 1.9 1.2 2.3 2.3 7.2 19.3 24.1 64.4 40.1 108.2l-83.4-0.2zM251.5 420.5h395.8c16.5 0 22.4-5.9 22.4-22.4s-5.9-22.4-22.4-22.4H251.5c-16.5 0-22.4 5.8-22.4 22.4 0 16.6 5.9 22.4 22.4 22.4zM669.6 513.6c0-16.5-5.9-22.4-22.4-22.4H251.5c-16.5 0-22.4 5.8-22.4 22.4S235 536 251.5 536h395.8c16.5 0 22.3-5.9 22.3-22.4zM251.5 606.8c-16.5 0-22.4 5.8-22.4 22.4s5.9 22.4 22.4 22.4H504c16.5 0 22.4-5.8 22.4-22.4s-5.9-22.4-22.4-22.4H251.5z" p-id="6030"></path></svg>