<svg t="1742714322728" class="icon" viewBox="0 0 1024 1024" version="1.1" xmlns="http://www.w3.org/2000/svg" p-id="47348" width="200" height="200"><path d="M665.317053 801.738105c8.084211 0 14.928842 6.790737 14.659368 14.928842v149.288421c0 8.138105-6.521263 14.928842-14.874947 14.928843H516.028632a14.874947 14.874947 0 0 1-14.928843-14.928843v-149.288421c0-8.084211 6.575158-14.928842 14.928843-14.928842z m238.753684 0c8.084211 0 14.659368 6.790737 14.928842 14.928842v149.288421c0 8.138105-6.575158 14.928842-14.928842 14.928843h-149.072842a14.874947 14.874947 0 0 1-14.928842-14.928843v-149.288421c0-8.084211 6.575158-14.928842 14.928842-14.928842zM577.360842 50.661053c12.557474 0 22.420211 4.203789 31.205053 13.258105a100176.842105 100176.842105 0 0 0 201.350737 207.333053c7.599158 7.868632 12.395789 16.599579 12.395789 27.971368l-0.053895 204.907789c0 1.401263-0.215579 2.748632-0.431158 5.389474h-65.158736V331.883789H615.087158c-39.828211-0.107789-65.913263-26.516211-66.128842-67.368421-0.215579-43.978105-0.053895-88.010105-0.053895-132.042105V119.107368H188.402526v725.477053h256.538948l0.053894 68.392421H188.672c-41.175579 0-66.991158-26.408421-66.991158-68.446316V118.837895c0-41.391158 25.869474-67.961263 66.290526-68.015158C317.857684 50.768842 447.582316 50.876632 577.360842 50.661053z m251.041684 499.065263c7.922526 0 15.090526 3.179789 20.533895 8.623158l85.854316 85.800421c11.317895 11.317895 11.317895 29.588211 0 41.121684l-85.854316 85.800421a28.725895 28.725895 0 0 1-41.067789 0l-85.854316-85.800421a28.725895 28.725895 0 0 1 0-41.121684l85.854316-85.854316a28.725895 28.725895 0 0 1 20.533894-8.569263z m-163.085473 24.414316a14.551579 14.551579 0 0 1 14.659368 14.659368v158.127158c0 8.084211-6.521263 14.928842-14.874947 14.928842H516.028632a14.874947 14.874947 0 0 1-14.928843-14.928842v-157.911579c0-8.353684 6.790737-14.874947 14.928843-14.874947z m163.085473 11.317894l-79.279158 79.225263 79.279158 79.279158 79.279158-79.225263-79.279158-79.333052z m-377.101473-221.507368c37.456842 2.586947 64.565895 27.109053 71.787789 65.266526 1.509053 7.922526 1.994105 16.006737 2.533053 20.857263-1.077895 33.738105-9.000421 61.062737-34.762106 79.494737-48.505263 34.654316-113.286737 4.850526-122.017684-55.727158-2.694737-18.809263-1.616842-37.187368 4.311579-55.18821 11.856842-35.301053 43.115789-57.128421 78.147369-54.703158z m230.507789 13.20421l-10.455579 36.810106c-14.012632-3.018105-26.785684-7.329684-39.82821-8.192-18.108632-1.239579-34.384842 4.958316-42.684632 23.174737-9.054316 19.779368-8.461474 39.989895 4.473263 57.936842 11.856842 16.491789 29.372632 17.192421 48.128 14.767158v-23.875369h-28.618105V437.625263h63.272421c2.317474 0 4.634947 0.538947 7.868632 0.916211 0 29.534316 0.107789 58.637474-0.161685 87.740631a8.084211 8.084211 0 0 1-4.096 5.928421c-30.019368 11.695158-60.685474 15.952842-91.297684 3.557053-31.528421-12.719158-45.918316-38.912-48.397474-72.218947-2.586947-35.031579 7.760842-65.374316 38.373053-84.07579 33.091368-20.318316 67.691789-19.024842 103.424-2.317474z m-379.957895-10.13221v133.443368h62.302316v40.04379H260.190316V367.023158h41.660631z m118.945685 51.415579c-5.874526 10.186105-7.922526 22.635789-12.234106 35.570526 4.257684 12.234105 6.575158 25.384421 12.934737 36.001684 11.587368 19.186526 37.349053 18.485895 50.28379 0.161685 13.312-18.863158 13.258105-53.948632-0.053895-72.81179-13.150316-18.593684-39.612632-18.701474-50.930526 1.077895z m197.200842-251.041684l-2.425263 2.209684v94.046316h91.674947l1.778526-2.371369-91.082105-93.884631z" fill="#666666" p-id="47349"></path></svg>