<svg t="1734244347063" class="icon" viewBox="0 0 1024 1024" version="1.1" xmlns="http://www.w3.org/2000/svg" p-id="25534" width="200" height="200"><path d="M769.706667 237.056c34.702222-60.984889 184.206222-118.784 113.777777-163.555556L813.511111 29.013333c-67.185778 12.117333-112.981333 98.929778-119.978667 166.115556-130.730667-48.924444-231.765333 27.989333-303.104 163.043555-46.364444 87.665778-90.453333 129.820444-188.529777 136.419556-36.238222-3.413333-62.577778 3.470222-74.069334 22.471111-18.204444 29.525333 6.314667 76.743111 60.416 129.137778 46.876444 45.511111 117.418667 98.417778 200.248889 147.797333 22.072889 13.255111 44.259556 25.6 65.763556 37.091556l2.673778-52.622222a1232.896 1232.896 0 0 1-43.576889-25.031112c-79.815111-47.616-147.114667-98.019556-191.488-141.084444-37.546667-36.124444-58.026667-62.577778-52.963556-70.656 5.12-8.362667 38.115556-2.56 87.950222 13.312 59.221333 19.000889 135.736889 54.556444 215.608889 102.343111 19.626667 11.662222 38.4 23.552 56.32 35.384889 13.653333 7.168 26.453333 16.042667 38.684445 25.941333l7.623111 6.144c35.100444 25.713778 65.422222 50.688 89.031111 73.784889 37.319111 35.953778 57.856 62.464 52.906667 70.599111-5.063111 8.192-38.229333 2.56-88.064-13.425777a668.273778 668.273778 0 0 1-54.897778-20.48l-0.284445 5.233777c21.048889 14.222222 33.507556 34.816 38.286223 59.505778l1.934222 0.739556c72.305778 23.04 125.895111 22.584889 144.099555-6.997334 10.24-16.839111 6.826667-39.367111-8.192-65.308444l0.113778-0.739556c-43.804444-93.127111-27.136-152.064 31.687111-235.576889 92.785778-131.640889 112.469333-262.371556-11.946666-355.100444zM482.986667 858.965333l7.566222-150.471111c21.447111 7.054222 40.391111 18.716444 57.799111 32.995556-1.706667 38.684444-3.640889 77.368889-5.347556 116.053333 25.884444 10.865778 41.073778 31.288889 41.073778 65.820445 0 34.702222-32.426667 71.623111-72.362666 71.623111-39.936 0-72.590222-37.660444-72.590223-71.623111 0-33.905778 19.683556-52.792889 43.804445-64.398223z m385.308444-768.739555s9.216 8.931556 3.356445 23.608889c-6.712889 17.237333-73.386667 53.816889-102.968889 101.148444 0 0-6.087111-1.706667-4.209778-4.209778 1.820444-2.503111 15.132444-48.355556 38.912-77.255111 23.552-28.615111 64.853333-43.292444 64.853333-43.292444zM486.4 436.679111c-15.018667 25.713778-135.281778 54.613333-135.281778 54.613333 63.431111-56.149333 74.808889-119.011556 120.035556-172.657777 42.666667-50.574222 92.842667-90.055111 159.061333-96.824889-74.524444 78.392889-93.866667 118.442667-143.815111 214.812444z" fill="#d81e06" p-id="25535"></path></svg>