<svg t="1770968531449" class="icon" viewBox="0 0 1233 1024" version="1.1" xmlns="http://www.w3.org/2000/svg" p-id="3437" width="200" height="200"><path d="M0 925.301205h1233.73494v98.698795H0v-98.698795zM6.168675 0v900.626506h1221.39759V0H6.168675z m923.259373 268.411373c7.439422-2.782072 15.285976-3.633349 23.552-2.553831 7.982265 1.708723 13.355181 4.490795 16.112579 8.352386 7.982265 11.44906 15.008386 18.789783 21.066024 22.034506a45.025157 45.025157 0 0 0 19.005686 4.176193c9.641639 0 17.488193-1.622361 23.552-4.873254 5.508627-2.775904 8.266024-6.261205 8.266024-10.437397-0.283759-14.064578-18.734265-28.838554-55.363855-44.303422-38.011373-16.390169-56.881349-34.328675-56.603759-53.815518 0-13.139277 8.679325-24.66853 26.031807-34.563084 16.24212-8.352386 33.878361-12.52241 52.884048-12.52241 18.444337 0 34.421205 2.547663 47.924434 7.649157 12.392867 4.79306 24.372434 13.071422 35.944868 24.822747 3.849253 4.33041 5.638169 8.42641 5.366747 12.294168-1.104193 4.484627-5.095325 7.963759-11.979567 10.437398a45.734554 45.734554 0 0 1-22.725397 2.547663c-7.710843-1.079518-13.21947-3.553157-16.52588-7.420916-6.335229-7.729349-12.534747-12.830843-18.592385-15.310651a53.846361 53.846361 0 0 0-19.41282-3.479132c-6.341398 0-11.714313 1.239904-16.118747 3.713542-4.404434 3.096675-6.606651 7.038458-6.60665 11.831518 0 12.991229 16.248289 26.445108 48.751036 40.361639 42.138217 17.630072 63.21041 36.882506 63.21041 57.757301-0.27759 13.299663-8.401735 24.427952-24.372434 33.403373-15.976867 8.963084-37.184771 13.447711-63.623711 13.447711-17.087229-0.154217-32.231325-2.862265-45.450795-8.117976-14.872675-5.255711-27.820723-15.384675-38.837976-30.386891-3.300241-4.947277-5.095325-9.82053-5.366747-14.613591 0-3.546988 3.300241-7.032289 9.91306-10.431229zM158.81253 149.64588c0.271422-6.495614 9.641639-9.746506 28.098313-9.746507 18.179084 0 29.467759 3.250892 33.878362 9.746507l58.664096 92.783036V149.652048c0.271422-6.495614 9.641639-9.746506 28.098313-9.746506 18.728096 0 28.092145 3.250892 28.092145 9.746506v172.581012c-0.27759 6.495614-9.641639 9.746506-28.092145 9.746506-19.005687 0-30.306699-3.250892-33.878361-9.746506L215.002988 229.906506v92.320386c-0.27759 6.495614-9.641639 9.746506-28.092145 9.746506-18.734265 0-28.098313-3.250892-28.098313-9.746506V149.652048z m367.578988 620.920289h-400.963855a34.914699 34.914699 0 0 1-34.951711-34.883856 34.914699 34.914699 0 0 1 34.951711-34.890024h400.963855A34.914699 34.914699 0 0 1 561.349398 735.682313a34.914699 34.914699 0 0 1-34.95788 34.883856z m0-213.417639h-400.963855a34.914699 34.914699 0 0 1-34.951711-34.890024 34.914699 34.914699 0 0 1 34.951711-34.883855h400.963855A34.914699 34.914699 0 0 1 561.349398 522.258506a34.914699 34.914699 0 0 1-34.95788 34.890024z m5.662843-337.679422c20.930313 0.154217 31.534265 5.181687 31.811856 15.076241-0.27759 10.980241-10.881542 16.470361-31.811856 16.470362h-62.797108v45.228723c0.826602 1.239904 1.788916 2.091181 2.893108 2.553831a32.934554 32.934554 0 0 0 10.326362 1.622362h78.496385c19.277108 0.154217 28.924916 5.416096 28.924916 15.773301 0 10.51759-9.647807 15.77947-28.924916 15.77947H441.985542c-19.277108-0.160386-28.918747-5.181687-28.918747-15.076241v-160.755663c0-10.819855 9.641639-16.235952 28.918747-16.235952h118.993735c19.27094 0.154217 28.918747 5.416096 28.918747 15.773301 0 10.51759-9.647807 15.773301-28.924916 15.773302H482.476723c-3.86159 0-7.439422 0.777253-10.739663 2.319421-1.381783 0.308434-2.208386 0.925301-2.479807 1.850603v43.846939h62.797108z m128.660049-70.982939c3.300241-2.627855 8.395566-4.256386 15.285976-4.873253 7.155663-0.616867 13.21947 0.23441 18.179084 2.553831 4.959614 2.46747 7.988434 6.804048 9.086458 12.991229l13.225638 99.278651 12.392868-38.739278c3.577831-8.192 11.701976-12.294169 24.372433-12.294168 12.670458 0.154217 20.381301 4.256386 23.138699 12.294168l11.152964 38.042217 18.179084-99.27865c0.826602-6.032964 4.268723-10.283181 10.332531-12.75682a40.947663 40.947663 0 0 1 19.832289-2.09118c6.878072 0.925301 11.701976 2.782072 14.459373 5.570313 2.202217 2.473639 2.893108 6.495614 2.066506 12.059759l-28.918747 159.824193c-0.826602 3.713542-2.899277 6.723855-6.199518 9.049446-4.133012 2.46747-9.647807 3.707373-16.532048 3.707373-7.710843-0.308434-12.948048-1.702554-15.693108-4.176193-3.584-2.775904-6.341398-6.575807-8.266025-11.362699l-26.031807-52.890216-25.612337 53.587277c-1.930795 4.176193-4.274892 7.420916-7.026121 9.746506-3.300241 2.621687-8.266024 4.250217-14.866506 4.873253-7.168 0.148048-12.954217-0.93147-17.352482-3.257061-4.410602-2.159036-6.754699-5.181687-7.02612-9.043277l-21.898795-160.052433c-0.826602-6.039133 0.413301-10.289349 3.719711-12.769157z m441.424192 622.08h-400.963855A34.914699 34.914699 0 0 1 666.216867 735.676145a34.914699 34.914699 0 0 1 34.95788-34.890025h400.963855a34.914699 34.914699 0 0 1 34.951711 34.890025 34.914699 34.914699 0 0 1-34.951711 34.883855z m0-213.417639h-400.963855A34.914699 34.914699 0 0 1 666.216867 522.258506a34.914699 34.914699 0 0 1 34.95788-34.883855h400.963855a34.914699 34.914699 0 0 1 34.951711 34.883855 34.914699 34.914699 0 0 1-34.951711 34.890024z" fill="#333333" p-id="3438"></path></svg>