<svg t="1753439985323" class="icon" viewBox="0 0 1024 1024" version="1.1" xmlns="http://www.w3.org/2000/svg" p-id="75388" width="200" height="200"><path d="M0 171.434667A171.52 171.52 0 0 1 171.434667 0H852.48A171.52 171.52 0 0 1 1024 171.434667V852.48A171.52 171.52 0 0 1 852.565333 1024H171.52A171.52 171.52 0 0 1 0 852.565333V171.52zM256 853.333333h308.48c57.6 0 105.728-17.92 144.213333-53.845333 38.912-34.304 58.624-81.066667 59.306667-139.946667a181.76 181.76 0 0 0-28.672-98.816c-20.48-29.354667-50.517333-48.896-90.453333-58.538666v-1.877334c21.162667-9.386667 38.912-19.797333 53.333333-31.402666 14.336-10.922667 25.429333-22.442667 33.109333-34.645334 15.104-25.6 22.272-52.394667 21.589334-80.554666 0-54.869333-18.176-99.072-54.698667-132.437334C666.026667 188.16 611.84 171.264 539.904 170.666667H256v682.666666z m281.856-302.933333c41.216 0.597333 71.338667 10.752 90.453333 30.464 19.114667 19.968 28.672 43.946667 28.672 72.106667 0 27.392-9.557333 51.2-28.672 71.168-19.114667 20.224-49.237333 30.72-90.453333 31.317333H367.018667V550.4h170.837333zM527.36 262.826667c40.533333 0.682667 70.314667 9.898667 89.429333 27.733333 19.370667 19.029333 29.098667 42.24 29.098667 69.717333 0 27.477333-9.728 50.346667-29.098667 68.352-19.114667 19.626667-48.896 29.525333-89.429333 29.525334H366.933333V262.912H527.36z" fill="#10ba08" p-id="75389" data-spm-anchor-id="a313x.search_index.0.i30.2c293a81kX3Zwt" class="selected"></path></svg>