<svg t="1748014487135" class="icon" viewBox="0 0 1024 1024" version="1.1" xmlns="http://www.w3.org/2000/svg" p-id="5491" width="200" height="200"><path d="M758.857143 219.428571a100.571429 100.571429 0 0 1 100.571428 100.571429v292.571429a100.571429 100.571429 0 0 1-100.571428 100.571428h-475.428572A100.571429 100.571429 0 0 1 182.857143 612.571429v-292.571429A100.571429 100.571429 0 0 1 283.428571 219.428571h475.428572z m0 54.857143h-475.428572c-25.234286 0-45.714286 20.48-45.714285 45.714286v292.571429c0 25.270857 20.48 45.714286 45.714285 45.714285h475.428572c25.234286 0 45.714286-20.443429 45.714286-45.714285v-292.571429c0-25.234286-20.48-45.714286-45.714286-45.714286z m-98.486857 136.630857l2.340571 2.889143a27.428571 27.428571 0 0 1-6.509714 38.217143l-103.314286 73.289143a27.428571 27.428571 0 0 1-38.290286-6.582857l-35.693714-50.614857-79.213714 57.051428a27.428571 27.428571 0 0 1-35.913143-3.291428l-2.377143-2.925715a27.428571 27.428571 0 0 1 6.217143-38.253714l101.741714-73.289143a27.428571 27.428571 0 0 1 38.436572 6.436572l35.766857 50.834285 80.932571-57.417142a27.428571 27.428571 0 0 1 35.876572 3.657142zM658.322286 786.285714a27.428571 27.428571 0 1 1 0 54.857143h-292.498286a27.428571 27.428571 0 1 1 0-54.857143h292.498286z" p-id="5492"></path></svg>