<svg t="1751474336333" class="icon" viewBox="0 0 1024 1024" version="1.1" xmlns="http://www.w3.org/2000/svg" p-id="6621" width="200" height="200"><path d="M511.968 181.632c-181.944 0-329.976 147.744-329.976 329.344s148.032 329.336 329.976 329.336c181.952 0 329.984-147.744 329.984-329.336 0-181.6-148.032-329.344-329.984-329.344z m511.976 27.944c0 66.272-30.496 127.088-82.544 166.6a449.616 449.616 0 0 1 20.544 134.8c0 107.36-37.52 208.96-106.32 289.928l47.376 183.64c6.456 25.016-19.72 45.72-42.576 34.184l-180.368-90.936c-52.72 21.168-109.544 32.28-168.08 32.28-58.544 0-115.36-11.12-168.088-32.288L163.52 1018.728c-22.752 11.472-49.056-9.096-42.576-34.192l47.384-183.632C99.52 719.936 62 618.344 62 510.976c0-46.416 7.032-91.744 20.544-134.8C30.496 336.656 0 275.848 0 209.576 0 94.016 94.2 0 209.992 0c66.392 0 127.328 30.44 166.92 82.384a452.144 452.144 0 0 1 135.056-20.504c46.504 0 91.92 7.016 135.064 20.504C686.624 30.44 747.56 0 813.952 0c115.792 0 209.992 94.016 209.992 209.576z m-963.944 0c0 41.408 16.672 79.84 45.752 107.728 44.48-92.752 120.432-167.936 212.168-211.76-27.936-29.016-66.44-45.664-107.928-45.664-82.712 0-150 67.152-150 149.696z m135.552 725.92l81.704-41.2a450.72 450.72 0 0 1-59.784-43.76l-21.92 84.96z m551.136-41.2l81.696 41.2-21.92-84.96a450.72 450.72 0 0 1-59.776 43.76z m-23.872-215.232l-19.936-19.896a30.04 30.04 0 0 0-42.424 0 29.896 29.896 0 0 0 0 42.344l19.936 19.896a268.976 268.976 0 0 1-138.424 57.352v-28.264a29.968 29.968 0 0 0-30-29.944 29.968 29.968 0 0 0-30 29.944v28.264a268.984 268.984 0 0 1-138.416-57.352l19.936-19.896a29.896 29.896 0 0 0 0-42.344 30.04 30.04 0 0 0-42.424 0l-19.936 19.896a267.92 267.92 0 0 1-57.464-138.152h28.32a29.968 29.968 0 0 0 30-29.936 29.968 29.968 0 0 0-30-29.944h-28.32A267.928 267.928 0 0 1 301.12 342.88l19.944 19.896a30.04 30.04 0 0 0 42.424 0 29.896 29.896 0 0 0 0-42.336l-19.944-19.904A268.976 268.976 0 0 1 481.968 243.2v28.264a29.968 29.968 0 0 0 30 29.936 29.968 29.968 0 0 0 30-29.936v-28.264c52 5.76 99.576 26.32 138.424 57.344l-19.936 19.904a29.896 29.896 0 0 0 0 42.336 30.04 30.04 0 0 0 42.424 0l19.936-19.896a267.896 267.896 0 0 1 57.464 138.16h-28.32a29.968 29.968 0 0 0-30 29.936c0 16.536 13.432 29.736 30 29.736h28.32a268.584 268.584 0 0 1-57.464 138.352z m-210.848 221.12c215.04 0 389.984-174.6 389.984-389.208 0-214.616-174.944-389.216-389.984-389.216-215.032 0-389.976 174.6-389.976 389.216 0 214.608 174.944 389.216 389.976 389.216z m406.224-582.88c29.072-27.888 45.76-66.32 45.76-107.728 0-82.544-67.296-149.696-150-149.696-41.488 0-80 16.648-107.928 45.664 92.88 44.368 168.24 120.16 212.16 211.76zM631.96 481.024H541.968V391.216a29.968 29.968 0 0 0-30-29.944 29.968 29.968 0 0 0-30 29.944v119.76a29.968 29.968 0 0 0 30 29.936h120a29.968 29.968 0 0 0 30-29.936 29.976 29.976 0 0 0-30-29.944z" fill="#20A0FF" p-id="6622"></path></svg>