<svg t="1763969689161" class="icon" viewBox="0 0 1024 1024" version="1.1" xmlns="http://www.w3.org/2000/svg" p-id="6665" width="200" height="200"><path d="M128 170.666667a42.666667 42.666667 0 0 1 42.666667-42.666667h682.666666a42.666667 42.666667 0 0 1 42.666667 42.666667v113.792a42.666667 42.666667 0 0 1-15.36 32.768l-212.181333 176.810666v55.893334a42.666667 42.666667 0 1 1-85.333334 0V474.026667a42.666667 42.666667 0 0 1 15.36-32.768L810.666667 264.448V213.333333H213.333333v51.114667l212.224 176.853333a42.666667 42.666667 0 0 1 15.36 32.768V853.333333a42.666667 42.666667 0 1 1-85.333333 0v-359.253333L143.36 317.184A42.666667 42.666667 0 0 1 128 284.458667V170.666667zM583.082667 853.333333a42.666667 42.666667 0 0 1 42.666666-42.666666h189.653334a42.666667 42.666667 0 0 1 0 85.333333h-189.653334a42.666667 42.666667 0 0 1-42.666666-42.666667z" p-id="6666"></path><path d="M583.082667 701.653333a42.666667 42.666667 0 0 1 42.666666-42.666666h189.653334a42.666667 42.666667 0 0 1 0 85.333333h-189.653334a42.666667 42.666667 0 0 1-42.666666-42.666667z" p-id="6667"></path></svg>