<svg t="1750515596411" class="icon" viewBox="0 0 1024 1024" version="1.1" xmlns="http://www.w3.org/2000/svg" p-id="8952" width="200" height="200"><path d="M448.49408 835.669333V512a42.666667 42.666667 0 0 1 85.333333 0v323.669333l47.829334-47.872a42.666667 42.666667 0 0 1 60.330666 60.373334L551.53408 938.666667a85.333333 85.333333 0 0 1-120.746667 0l-90.453333-90.496a42.666667 42.666667 0 1 1 60.330667-60.330667l47.829333 47.786667zM762.09408 303.36l6.4-0.085333a256 256 0 1 1 0 512 42.666667 42.666667 0 0 1 0-85.333334 170.666667 170.666667 0 1 0-34.56-337.834666 42.666667 42.666667 0 0 1-51.2-39.253334A234.666667 234.666667 0 1 0 220.824747 424.448a42.666667 42.666667 0 0 1-32.853334 52.138667A128.042667 128.042667 0 0 0 213.827413 730.026667a42.666667 42.666667 0 1 1 0 85.333333A213.333333 213.333333 0 0 1 130.755413 405.333333 320 320 0 0 1 762.09408 303.36z" fill="#000000" p-id="8953"></path></svg>