<svg t="1743525910294" class="icon" viewBox="0 0 1024 1024" version="1.1" xmlns="http://www.w3.org/2000/svg" p-id="2705" width="200" height="200"><path d="M438.9 804.3H585v-73.1H438.9v73.1z m-219.2 0h146.1v-73.1H219.7v73.1z m438.4-146.2h146.1V585H658.1v73.1z m-219.2 0H585V585H438.9v73.1z m-219.2 0h146.1V585H219.7v73.1zM658.1 512h146.1v-73.1H658.1V512z m-219.2 0H585v-73.1H438.9V512z m-219.2 0h146.1v-73.1H219.7V512z" fill="#333333" p-id="2706"></path><path d="M913.9 146.6H731.2v-73h-73.1v73.1H365.9V73.6h-73.1v73.1H110.1c-20.1 0-36.5 16.4-36.5 36.5v730.7c0 20.1 16.4 36.5 36.5 36.5h803.8c20.1 0 36.5-16.4 36.5-36.5V183.2c0-20.1-16.4-36.6-36.5-36.6z m-36.6 730.8H146.6V365.9h730.7v511.5z" fill="#333333" p-id="2707"></path></svg>