<svg t="1747388517047" class="icon" viewBox="0 0 1024 1024" version="1.1" xmlns="http://www.w3.org/2000/svg" p-id="14205" width="200" height="200"><path d="M293.504 739.264l355.52-361.088-181.952-185.792L101.12 558.592l-3.52 22.336 187.008 159.232 8.832-0.896z m418.048-424.576l126.4-128.384 8.128-51.264L710.656 0.192l-54.208 2.752-133.12 133.184 188.16 178.624zM41.6 830.912l158.208-68.096-129.152-105.792-53.44 128.128-16.256 59.328 40.64-13.568z m9.472 90.88a51.008 51.008 0 0 0 0 102.016h921.856a51.008 51.008 0 0 0 0-102.016H51.072z m921.344-127.936a51.52 51.52 0 0 0 0-102.976H461.12a51.52 51.52 0 0 0 0 103.04h511.296z" fill="#bfbfbf" p-id="14206" data-spm-anchor-id="a313x.search_index.0.i5.3aa73a81pZ1xAj" class="selected"></path></svg>