<svg t="1752721909359" class="icon" viewBox="0 0 1024 1024" version="1.1" xmlns="http://www.w3.org/2000/svg" p-id="13719" width="200" height="200"><path d="M431.6 319.4h-50v62.2h-49.1v217.5h49.1v60.4h50v-60.4h49.1V381.6h-49.1v-62.2z m-1 229.7h-48.2V431.6h48.2v117.5zM685.8 276h-49.1v-62.2h-50V276h-49.1v217.5h49.1v60.4h50v-60.4h49.1V276z m-50 167.4h-48.2V326h48.2v117.4z" fill="#333333" p-id="13720"></path><path d="M920.1 783.7v-699c0-11-8.9-20-20-20-64.2-0.1-251.2-0.2-424-0.2-94.4 0-184.5 0-248.2 0.2-13.4 0-27.4 2.1-40.2 5.9-51.6 15.7-83.8 61-83.8 116.3-0.1 232.1 0 391.8 0 623.9 0 3 0 5.9 0.1 8.9 1.3 41.5 16.3 86.4 50.3 112.6 23.9 18.4 51.4 27.3 81.8 27.3H920v-69.4c-18.3-10.7-30.9-30.4-30.9-53.2 0.1-22.9 12.6-42.6 31-53.3zM173.9 186.9c0-24.7 12.5-42.7 34.2-49.4 6.1-1.9 13.2-2.9 19.9-2.9 57.9-0.1 141.4-0.2 248.1-0.2 141.8 0 289.5 0.1 374 0.2v582.7h-581c-40.4 0-75.8 21.7-95.1 54.1V691c-0.1-175.4-0.1-314-0.1-504.1z m95.2 682c-22.5 0-40.8-18.3-40.8-40.8 0-22.5 18.3-40.8 40.8-40.8h560c-6.4 15.6-9.9 32.4-9.9 49.6 0 10.9 1.4 21.6 4 32H269.1z" fill="#333333" p-id="13721"></path></svg>