<svg t="1765895990388" class="icon" viewBox="0 0 1024 1024" version="1.1" xmlns="http://www.w3.org/2000/svg" p-id="5563" width="200" height="200"><path d="M197.96992 862.0544c-26.624 0-51.84-10.5472-70.99392-29.70112s-29.696-44.36992-29.696-70.99392V262.64064c0-26.62912 10.5472-51.84 29.70112-70.99392s44.3648-29.70112 70.99392-29.70112H827.5968c26.6496 0 52.67968 11.05408 71.41376 30.32576 18.59584 19.13344 28.42624 44.10368 27.6736 70.30272l0.00512 498.78016c0 26.624-10.5472 51.84-29.70624 70.99392-19.15392 19.15392-44.3648 29.70112-70.99392 29.70112l-628.0192 0.00512z m0-656.13312c-31.80032 0-56.71424 24.91392-56.71424 56.71424v498.71872c0 31.80032 24.91392 56.70912 56.71424 56.70912H827.5968c31.80032 0 56.71424-24.9088 56.71424-56.70912V262.64064c0-31.80032-24.9088-56.71424-56.71424-56.71424l-629.62688-0.00512z" p-id="5564"></path><path d="M198.0416 261.48864v499.39456h627.92704V261.48864H198.0416z m225.03936 456.0384H346.95168v-169.77408l38.08768-31.08864 38.03648 32.0512v168.81152z m127.77984-0.0512H474.73664v-125.16352l15.27808 12.8768 60.84608-51.81952v164.10624z m127.78496 0H602.5216V509.29152l76.12416-64.90624v273.09056z m50.10944-268.22656l-51.87072-50.4832-186.86464 159.24736-104.97536-88.51968-89.79968 73.2928V484.13184l89.79968-73.34912L490.01472 499.3536l154.70592-131.89632L582.8096 307.2h145.9456v142.04928z" p-id="5565"></path></svg>