<svg t="1742709199286" class="icon" viewBox="0 0 1034 1024" version="1.1" xmlns="http://www.w3.org/2000/svg" p-id="31449" width="200" height="200"><path d="M614.443833 795.332966H763.945453v103.179601l270.652725-155.450377-270.605761-157.062802v104.666789H614.443833zM230.263805 70.226625c0-7.435944 7.435944-14.981471 14.981471-14.981471H681.758699a56.967162 56.967162 0 0 1 14.981471 1.487189v231.688375h231.688375c1.487189 5.948756 1.487189 34.440164 1.487189 38.886076v294.619947l58.329114 35.911698V328.856601c0-40.373265-23.904605-119.64826-50.783587-148.014431l-130.105546-130.089892C778.817342 22.417416 723.619152 0 683.324161 0H245.135694a73.341894 73.341894 0 0 0-73.201003 73.201003v146.527243h58.329114z m524.695897 12.007094a64.68489 64.68489 0 0 1 10.410322 8.923133l130.183819 130.058582a65.451966 65.451966 0 0 1 8.907479 10.410323h-149.50162zM614.443833 363.296765h239.233902v68.739436H614.443833z m315.424937 587.486578c0 7.435944-7.435944 14.981471-14.997126 14.981471H245.135694c-7.435944 0-14.981471-7.435944-14.981472-14.981471v-49.296399h-58.344768v49.296399a73.357549 73.357549 0 0 0 73.185348 73.216657h671.254449a73.373204 73.373204 0 0 0 73.216657-73.216657v-122.622639l-58.344768 34.440164v88.182475zM547.128967 286.996147H0v547.222895h547.23855V286.996147z m-198.813673 429.077479l-74.688192-110.615545-32.952975 50.799242h32.952975v61.303492h-167.504433l122.622638-179.354981-107.609858-161.524369h89.685318l64.293524 94.13123 64.277869-94.13123h89.685318l-107.641167 161.508714 122.622638 179.354981h-95.634073z m266.128539-216.769523h239.233902v68.739436H614.443833z" fill="#027A23" p-id="31450"></path></svg>