<svg t="1765691065616" class="icon" viewBox="0 0 1024 1024" version="1.1" xmlns="http://www.w3.org/2000/svg" p-id="5938" width="200" height="200"><path d="M898.531556 928.512c-10.979556 21.617778-31.032889 32.113778-53.361778 38.599111H179.000889c-2.304-0.881778-4.522667-1.877333-6.826667-2.588444-29.326222-8.874667-47.843556-28.16-55.296-58.055111-1.251556-4.067556-2.133333-8.618667-3.100444-13.056V344.832c0.625778-1.223111 1.592889-2.304 1.763555-3.640889 6.030222-42.581333 35.726222-68.551111 78.364445-68.551111h198.001778c-3.640889-5.148444-5.859556-8.248889-8.163556-11.377778-37.12-50.488889-74.524444-100.721778-111.047111-151.580444a47.075556 47.075556 0 0 1-7.992889-25.969778c0-12.714667 10.922667-23.466667 22.784-25.856 14.620444-2.929778 25.884444 2.389333 34.759111 14.478222 46.876444 64.028444 94.037333 127.772444 140.828445 191.772445 4.522667 6.229333 9.130667 8.988444 16.924444 8.732444a1132.771556 1132.771556 0 0 1 62.947556 0c8.675556 0.256 13.624889-2.844444 18.602666-9.699555a18457.344 18457.344 0 0 1 140.572445-190.520889c5.148444-6.855111 14.279111-12.544 22.613333-14.762667 13.027556-3.470222 24.263111 2.759111 31.004444 14.592 6.997333 12.174222 5.404444 24.263111-2.929777 35.555556-37.831111 51.285333-75.605333 102.599111-113.265778 153.969777-2.218667 2.958222-4.067556 6.144-6.912 10.496 68.437333 0 134.542222-0.085333 200.760889 0 34.56 0.085333 63.374222 22.243556 72.760889 55.751111 1.507556 5.432889 2.759111 10.951111 4.067555 16.355556v548.551111c-3.783111 11.832889-6.200889 24.462222-11.690666 35.384889z m-269.795556-9.045333a23.950222 23.950222 0 0 0 23.751111-24.206223 23.836444 23.836444 0 0 0-23.921778-24.007111 24.092444 24.092444 0 0 0-23.950222 24.120889c0.113778 13.056 11.093333 24.092444 24.120889 24.092445z m-116.650667 16.355555a40.305778 40.305778 0 0 0 40.078223-39.936c0.170667-22.584889-18.090667-41.244444-40.163556-41.244444-21.617778 0-39.964444 18.403556-40.049778 40.277333a40.106667 40.106667 0 0 0 40.135111 40.903111z m-116.821333-16.355555a24.376889 24.376889 0 0 0 24.206222-24.007111 24.263111 24.263111 0 0 0-23.921778-24.206223 23.608889 23.608889 0 0 0-23.950222 23.921778 23.779556 23.779556 0 0 0 23.665778 24.291556z m443.704889-512.284445c0-41.187556-25.799111-66.958222-67.100445-66.958222-86.499556-0.085333-172.913778-0.085333-259.328-0.085333H251.079111c-39.793778 0-65.962667 26.140444-66.048 65.877333v354.816c0 40.106667 26.510222 66.872889 66.56 66.872889 173.653333 0.085333 347.192889 0.085333 520.817778 0 40.078222 0 66.56-26.851556 66.56-66.872889V407.182222z m-128.967111 158.520889c10.012444 5.688889 21.276444 9.870222 29.525333 17.408 21.816889 19.911111 14.279111 53.162667-13.653333 62.776889a68.096 68.096 0 0 1-47.786667-0.881778c-15.047111-5.774222-23.921778-19.911111-23.466667-37.262222h29.411556c0.995556 3.015111 1.166222 7.480889 3.470222 9.500444 4.522667 4.010667 9.927111 8.647111 15.502222 9.358223 3.896889 0.512 11.093333-4.266667 12.145778-8.106667a21.105778 21.105778 0 0 0-3.271111-16.526222c-3.982222-5.063111-10.894222-7.907556-16.839111-11.207111-8.504889-4.807111-17.635556-8.448-25.713778-13.767111-12.657778-8.362667-17.806222-20.821333-15.160889-35.754667 2.389333-13.511111 11.008-22.755556 23.836445-27.192889 18.176-6.314667 36.352-6.144 53.276444 3.896889 11.178667 6.684444 17.038222 17.152 17.550222 31.118222-10.467556 0.170667-20.48 0.170667-30.577777 0.170667-1.422222-3.271111-2.474667-6.826667-4.352-9.756445a14.677333 14.677333 0 0 0-21.703111-3.299555c-5.575111 4.977778-5.660444 14.592 0.967111 20.167111 4.892444 4.010667 11.264 6.144 16.839111 9.358222z m-108.657778 81.692445c-8.334222 1.507556-12.145778-1.848889-14.165333-10.126223-4.522667-17.777778-10.126222-35.299556-16.156445-55.921777-6.912 23.722667-13.027556 44.344889-19.143111 65.422222h-19.399111c-12.316444-44.174222-24.632889-88.632889-37.319111-133.888h32.369778c4.778667 19.655111 9.557333 38.940444 14.250666 58.225778 0.625778 0.199111 1.251556 0.284444 1.763556 0.455111l11.434667-40.732445c5.432889-19.370667 5.432889-19.370667 27.050666-17.863111l17.009778 61.895111c4.892444-19.655111 9.585778-36.295111 12.942222-53.162666 1.592889-7.936 4.977778-10.069333 12.401778-9.443556 7.196444 0.711111 14.449778 0.170667 22.784 0.170667-12.572444 45.340444-24.803556 89.543111-37.319111 134.257777-2.929778 0.284444-5.745778 0.170667-8.504889 0.711112z m-178.403556-0.711112c-10.467556-0.711111-17.834667-9.415111-18.005333-20.280888-0.540444-37.603556-0.170667-75.207111-0.170667-113.265778h79.928889v20.821333h-47.132444v32.369778h42.183111v22.044444H437.475556v37.319111h49.009777v21.447112c-21.191111 0-42.467556 0.967111-63.544889-0.455112z m-79.160888-6.030222c-10.268444-20.280889-20.110222-40.817778-31.744-61.184v67.043556H280.490667v-134.087111c9.841778 0 19.228444-0.512 28.529777 0.369777 2.844444 0.256 6.4 4.096 7.822223 7.111112 10.012444 20.878222 19.484444 41.955556 31.089777 62.947555v-70.058667h32.085334v134.599112c-9.557333 0-18.858667 0.540444-28.074667-0.256-2.929778-0.284444-6.741333-3.555556-8.163555-6.485334z" p-id="5939"></path></svg>