<svg t="1765691286386" class="icon" viewBox="0 0 1024 1024" version="1.1" xmlns="http://www.w3.org/2000/svg" p-id="8289" width="200" height="200"><path d="M512.01312 240a352 352 0 0 1 263.68 118.88l140.48-81.12A512 512 0 1 0 149.93312 954.08l113.12-113.12A352 352 0 0 1 512.01312 240z" fill="#3286ED" p-id="8290"></path><path d="M829.13312 439.04a352 352 0 0 1-68.16 401.92l113.12 113.12a512 512 0 0 0 93.76-595.2z" fill="#7BBDB7" p-id="8291"></path><path d="M720.01312 480l-188.64 122.72A64 64 0 1 0 560.01312 656a65.76 65.76 0 0 0-4.48-23.2z" fill="#4F5F7F" p-id="8292"></path></svg>