<svg t="1746113992055" class="icon" viewBox="0 0 1024 1024" version="1.1" xmlns="http://www.w3.org/2000/svg" p-id="3631" width="200" height="200"><path d="M160 170.666667C107.349333 170.666667 64 214.016 64 266.666667v405.333333c0 4.16 0.725333 8.149333 1.258667 12.16A32 32 0 0 0 64 693.333333v85.333334C64 831.317333 107.349333 874.666667 160 874.666667h704c52.650667 0 96-43.349333 96-96v-85.333334a32 32 0 0 0-1.258667-9.216c0.533333-4.010667 1.258667-7.978667 1.258667-12.117333v-405.333333c0-52.650667-43.349333-96-96-96H618.666667c-43.690667 0-81.194667 21.802667-106.666667 53.717333C486.528 192.469333 449.024 170.666667 405.333333 170.666667H160z m0 64H405.333333c41.6 0 74.666667 33.066667 74.666667 74.666666v429.248C449.258667 717.098667 412.821333 704 373.909333 704H160c-18.048 0-32-13.952-32-32v-405.333333c0-18.048 13.952-32 32-32zM618.666667 234.666667h245.333333c18.048 0 32 13.952 32 32v405.333333c0 18.048-13.952 32-32 32H650.090667c-38.912 0-75.349333 13.098667-106.090667 34.581333V309.333333c0-41.6 33.066667-74.666667 74.666667-74.666666z m106.709333 42.666666a32 32 0 0 0-32 32v14.250667c-47.658667 12.949333-81.493333 62.656-64.426667 114.666667 12.650667 38.528 50.666667 63.082667 91.221334 63.082666h21.205333c14.698667 0 26.666667 11.968 26.666667 26.666667S756.053333 554.666667 741.333333 554.666667h-36.48c-17.493333 0-24.384-11.946667-25.557333-14.336a32.128 32.128 0 0 0-48.256-11.029334c-12.778667 9.6-15.424 27.797333-7.829333 41.856a91.2 91.2 0 0 0 70.122666 46.677334v11.498666a32 32 0 1 0 64 0v-12.288a90.645333 90.645333 0 0 0 74.026667-99.968c-5.418667-46.357333-47.616-79.744-94.293333-79.744h-21.952c-14.698667 0-26.666667-11.968-26.666667-26.666666 0-14.208 13.44-26.666667 28.714667-26.666667h18.048c16.170667 0 21.824 6.890667 25.536 14.336a32 32 0 0 0 48.042666 11.114667c12.736-9.493333 15.466667-28.032 8-42.069334-12.8-24.042667-33.450667-39.424-59.413333-44.970666V309.333333a32 32 0 0 0-32-32zM224 298.666667a32 32 0 1 0 0 64h149.333333a32 32 0 1 0 0-64h-149.333333z m0 128a32 32 0 1 0 0 64h149.333333a32 32 0 1 0 0-64h-149.333333z m0 128a32 32 0 1 0 0 64h64a32 32 0 1 0 0-64h-64zM128 762.026667c10.069333 3.626667 20.757333 5.973333 32 5.973333h213.909333c36.053333 0 69.290667 16.106667 92.138667 42.666667H160c-18.048 0-32-13.952-32-32v-16.64z m768 0v16.64c0 18.048-13.952 32-32 32H557.866667a121.514667 121.514667 0 0 1 92.224-42.666667H864c11.242667 0 21.930667-2.346667 32-5.973333z" p-id="3632"></path></svg>