<svg width="100%" height="100%" viewBox="0 0 500 500" fill="none" xmlns="http://www.w3.org/2000/svg">
<circle cx="250" cy="250" r="250" fill="white"/>
<path d="M158 455.393V226H78V395.063C99.665 420.725 126.969 441.472 158 455.393Z" fill="#C4E0F4"/>
<path d="M348 452.594V89H268V474.29C296.49 472.035 323.486 464.474 348 452.594Z" fill="#C4E0F4"/>
<path d="M253 474.98C252.001 474.994 251.001 475 250 475C222.953 475 197.021 470.228 173 461.479V167H253V474.98Z" fill="#C4E0F4"/>
<path fill-rule="evenodd" clip-rule="evenodd" d="M302.581 207.719L381 224.404V313H361V254.029L212.293 379.573L121.065 341.685L63.7679 394.361L50.2319 379.638L116.935 318.314L208.706 356.427L348.946 238.031L298.419 227.281L302.581 207.719Z" fill="#004F88"/>
<circle cx="411" cy="201" r="25" fill="#C40000"/>
<path fill-rule="evenodd" clip-rule="evenodd" d="M250 475C374.264 475 475 374.264 475 250C475 125.736 374.264 25 250 25C125.736 25 25 125.736 25 250C25 374.264 125.736 475 250 475ZM250 500C388.071 500 500 388.071 500 250C500 111.929 388.071 0 250 0C111.929 0 0 111.929 0 250C0 388.071 111.929 500 250 500Z" fill="#004F88"/>
</svg>
