<svg t="1768197114220" class="icon" viewBox="0 0 1201 1024" version="1.1" xmlns="http://www.w3.org/2000/svg" p-id="30314" width="200" height="200"><path d="M819.2 372.51c-11.288 0-22.576-6.45-28.22-16.932-8.063-15.32-1.613-34.67 13.707-41.928l126.589-64.504c15.32-8.063 34.67-1.612 41.927 13.708 8.063 15.32 1.613 34.67-13.707 41.927l-126.589 64.504c-4.031 2.419-8.87 3.225-13.707 3.225z m-141.909-20.157c-8.063 0-15.32-3.225-21.77-8.87l-145.94-139.49c-12.9-12.094-12.9-31.445-0.806-44.346s31.445-12.9 44.346-0.806l145.94 139.49c12.901 12.094 12.901 31.445 0.807 44.346-5.644 6.45-14.514 9.676-22.577 9.676zM235.44 378.154c-8.063 0-16.126-3.225-21.77-8.869-12.094-12.094-12.9-32.252-0.806-44.346l165.291-168.517c12.095-12.094 32.252-12.9 44.347-0.806s12.9 32.252 0.806 44.346L258.016 368.48c-6.45 6.45-14.514 9.675-22.577 9.675z" fill="#6097FD" p-id="30315"></path><path d="M174.967 523.288c-64.504 0-116.107-52.41-116.107-116.107 0-64.504 52.41-116.107 116.107-116.107 64.504 0 116.107 52.41 116.107 116.107s-52.41 116.107-116.107 116.107z m0-170.129c-29.833 0-53.216 24.189-53.216 53.216 0 29.833 24.19 53.216 53.216 53.216 29.833 0 53.216-24.19 53.216-53.216 0-29.027-23.383-53.216-53.216-53.216z m288.655-114.494c-64.504 0-116.107-52.41-116.107-116.108 0-64.503 52.41-116.107 116.107-116.107 64.504 0 116.107 52.41 116.107 116.107s-51.603 116.108-116.107 116.108z m0-170.13c-29.833 0-53.216 24.19-53.216 53.216 0 29.833 24.19 53.216 53.216 53.216 29.833 0 53.216-24.189 53.216-53.216 0.806-29.027-23.383-53.216-53.216-53.216zM741.795 492.65c-64.504 0-116.107-52.41-116.107-116.107 0-64.504 52.41-116.107 116.107-116.107s116.107 52.41 116.107 116.107S806.3 492.649 741.795 492.649z m0-170.13c-29.833 0-53.215 24.19-53.215 53.216 0 29.834 24.189 53.216 53.215 53.216 29.833 0 53.216-24.189 53.216-53.216 0.806-29.026-23.383-53.215-53.216-53.215z m279.786 30.64c-64.504 0-116.107-52.41-116.107-116.107 0-64.504 52.41-116.107 116.107-116.107 64.504 0 116.107 52.41 116.107 116.107 0 64.504-52.41 116.107-116.107 116.107z m0-169.323c-29.833 0-53.216 24.19-53.216 53.216 0 29.833 24.19 53.216 53.216 53.216 29.833 0 53.216-24.19 53.216-53.216 0-29.027-24.19-53.216-53.216-53.216z" fill="#21D3AC" p-id="30316"></path><path d="M251.565 696.643v299.943H99.175V696.643c0-8.063 6.45-13.708 13.707-13.708h124.17c8.87 0 14.513 5.645 14.513 13.708zM533.77 414.438v582.148H381.38V414.438c0-9.676 8.063-18.545 18.544-18.545h116.107c9.676 0.806 17.74 8.87 17.74 18.545z m282.205 233.827v348.32h-152.39v-348.32c0-8.063 6.45-14.514 14.513-14.514h122.557c8.87 0 15.32 6.45 15.32 14.514z m282.205-113.689v462.01H945.789v-462.01c0-8.869 7.257-16.126 16.126-16.126h119.332c9.676 0 16.933 7.257 16.933 16.126z" fill="#4988FD" p-id="30317"></path><path d="M1172.36 1024H28.22C12.9 1024 0.806 1011.906 0.806 996.586s12.095-27.414 27.414-27.414h1144.14c15.319 0 27.413 12.094 27.413 27.414S1187.68 1024 1172.36 1024z" fill="#4988FD" p-id="30318"></path></svg>