<svg t="1753438415281" class="icon" viewBox="0 0 1024 1024" version="1.1" xmlns="http://www.w3.org/2000/svg" p-id="18098" width="200" height="200"><path d="M1024 0v1024l-512-105.033143L0 1024V0h1024zM225.426286 421.412571H133.961143V658.285714h59.721143v-168.594285h2.048L264.009143 658.285714h83.602286v-236.873143H288.585143v158.354286h-2.048l-61.110857-158.354286z m320.841143 0h-150.162286V658.285714h153.234286v-52.224h-92.818286v-43.337143h82.578286v-50.176h-82.578286V473.6h89.746286v-52.224z m86.710857 0h-63.158857L619.666286 658.285714h75.446857l32.402286-139.958857h2.048L761.307429 658.285714h75.446857l53.577143-236.873143h-62.793143l-31.085715 164.498286h-2.011428l-28.672-143.689143h-69.302857l-31.414857 143.725715h-2.048l-30.025143-164.571429z m-117.577143-312.173714l-21.065143 42.678857-47.104 6.838857 34.084571 33.243429-8.045714 46.884571 42.130286-22.125714 42.130286 22.125714-8.045715-46.884571 34.084572-33.243429-47.104-6.838857-21.065143-42.678857z m-180.882286 61.44h-163.84v13.641143h163.84v-13.641143z m525.641143 0h-163.84v13.641143h163.84v-13.641143z" fill="#FF6146" p-id="18099"></path></svg>