<svg t="1761190134071" class="icon" viewBox="0 0 1024 1024" version="1.1" xmlns="http://www.w3.org/2000/svg" p-id="15185" width="200" height="200"><path d="M362.2912 96.8704c-92.9792 37.2736-169.7792 109.568-217.088 201.3184h152.1664c17.2032-93.184 43.008-158.9248 64.9216-201.3184z" fill="#4D8ECC" p-id="15186"></path><path d="M493.7728 297.984v-229.376c-32.3584 1.024-63.6928 6.5536-94.0032 15.36-22.9376 41.3696-52.8384 111.0016-71.4752 214.2208h165.6832l-0.2048-0.2048z" fill="#1C69A1" p-id="15187"></path><path d="M868.7616 298.1888c-46.6944-90.5216-121.0368-162.2016-211.7632-199.8848 21.7088 42.1888 47.3088 107.7248 64.1024 199.8848h147.6608z" fill="#4D8ECC" p-id="15188"></path><path d="M619.1104 84.5824c-30.72-9.216-62.464-14.5408-94.6176-16.1792v229.7856H690.176c-18.432-102.8096-48.128-172.032-71.0656-213.6064z" fill="#1C69A1" p-id="15189"></path><path d="M655.9744 926.1056c91.136-37.6832 165.888-109.3632 212.5824-200.0896h-147.8656c-16.9984 92.9792-42.8032 158.3104-64.7168 200.0896z" fill="#4D8ECC" p-id="15190"></path><path d="M524.4928 726.016v229.1712c32.1536-1.6384 63.6928-6.3488 93.3888-15.5648 22.9376-40.5504 52.8384-110.1824 71.4752-213.6064h-164.864z" fill="#1C69A1" p-id="15191"></path><path d="M145.8176 726.016c47.5136 92.16 124.1088 164.4544 217.2928 201.728-22.1184-41.984-48.128-107.7248-65.3312-201.728H145.8176z" fill="#4D8ECC" p-id="15192"></path><path d="M400.7936 940.4416c29.9008 8.6016 61.0304 13.9264 92.9792 14.9504v-229.376h-165.0688c19.0464 104.0384 48.9472 173.8752 72.0896 214.4256z" fill="#1C69A1" p-id="15193"></path><path d="M215.2448 648.192V361.6768H181.248v224.8704L41.1648 361.6768H4.9152v286.5152h33.792V423.1168l140.288 225.0752h36.2496z" fill="#333333" p-id="15194"></path><path d="M215.2448 653.1072H178.9952c-1.6384 0-3.2768-0.8192-4.096-2.2528L43.6224 440.32v207.872c0 2.6624-2.2528 4.9152-4.9152 4.9152H4.9152c-2.6624 0-4.9152-2.2528-4.9152-4.9152V361.6768c0-2.6624 2.2528-4.9152 4.9152-4.9152h36.2496c1.6384 0 3.2768 0.8192 4.096 2.2528l131.072 210.3296V361.6768c0-2.6624 2.2528-4.9152 4.9152-4.9152h33.9968c2.6624 0 4.9152 2.2528 4.9152 4.9152V648.192c0 2.6624-2.2528 4.9152-4.9152 4.9152z m-33.5872-9.8304h28.672V366.592H186.1632v219.9552c0 2.2528-1.4336 4.096-3.4816 4.7104-2.048 0.6144-4.3008-0.2048-5.5296-2.048L38.5024 366.592h-28.672v276.6848h23.9616V423.1168c0-2.2528 1.4336-4.096 3.4816-4.7104 2.048-0.6144 4.3008 0.2048 5.5296 2.048l138.8544 222.8224zM440.1152 395.4688v-33.792h-193.1264v286.5152h199.2704V614.4h-163.84v-97.4848h147.456v-33.792h-147.456v-87.6544h157.696z" fill="#333333" p-id="15195"></path><path d="M446.2592 653.1072h-199.2704c-2.6624 0-4.9152-2.2528-4.9152-4.9152V361.6768c0-2.6624 2.2528-4.9152 4.9152-4.9152h193.1264c2.6624 0 4.9152 2.2528 4.9152 4.9152v33.792c0 2.2528-1.6384 4.3008-3.8912 4.7104-0.6144 0.2048-1.024 0.2048-1.6384 0h-152.3712v77.824h142.7456c2.6624 0 4.9152 2.2528 4.9152 4.9152v33.792c0 2.6624-2.2528 4.9152-4.9152 4.9152h-142.7456v87.6544h158.9248c2.6624 0 4.9152 2.2528 4.9152 4.9152v33.792c0.2048 2.8672-2.048 5.12-4.7104 5.12z m-194.3552-9.8304h189.44v-23.9616h-158.9248c-2.6624 0-4.9152-2.2528-4.9152-4.9152v-97.4848c0-2.6624 2.2528-4.9152 4.9152-4.9152h142.7456v-23.9616h-142.7456c-2.6624 0-4.9152-2.2528-4.9152-4.9152v-87.6544c0-2.6624 2.2528-4.9152 4.9152-4.9152h152.7808V366.592H251.904v276.6848z" fill="#333333" p-id="15196"></path><path d="M527.36 648.192h36.0448l56.7296-218.3168c2.4576-9.216 4.9152-20.48 7.7824-33.5872 0.8192 4.3008 3.6864 15.1552 8.3968 33.5872l56.32 218.3168h33.9968l73.1136-286.5152h-35.6352l-41.7792 184.32c-5.5296 23.3472-10.0352 44.2368-13.5168 62.2592-4.3008-31.744-11.0592-65.536-20.48-101.376l-38.2976-145.2032h-42.5984l-50.7904 193.536c-1.2288 4.7104-5.3248 22.3232-11.8784 53.0432-3.2768-19.456-7.168-39.1168-11.4688-58.7776l-40.3456-187.8016H456.704l70.656 286.5152z" fill="#333333" p-id="15197"></path><path d="M527.5648 653.1072c-1.8432 0-3.6864-1.2288-4.5056-3.072-0.2048-0.2048-0.2048-0.6144-0.2048-0.8192l-70.656-286.5152c-0.4096-1.4336 0-3.072 0.8192-4.3008 1.024-1.2288 2.2528-1.8432 3.8912-1.8432h36.2496c2.2528 0 4.3008 1.6384 4.7104 3.8912l40.3456 187.8016c2.4576 11.0592 4.9152 22.528 7.168 34.6112 3.4816-16.1792 5.7344-25.8048 6.7584-29.2864l50.7904-193.3312c0.6144-2.2528 2.4576-3.6864 4.7104-3.6864h42.5984c2.2528 0 4.096 1.4336 4.7104 3.6864l38.2976 145.2032c6.7584 25.8048 12.288 50.7904 16.5888 74.752 2.4576-11.6736 5.12-23.552 7.9872-35.6352l41.7792-184.1152c0.4096-2.2528 2.4576-3.8912 4.7104-3.8912h35.6352c1.4336 0 2.8672 0.6144 3.8912 1.8432s1.2288 2.6624 0.8192 4.3008L731.5456 649.216c-0.6144 2.2528-2.4576 3.6864-4.7104 3.6864h-33.9968c-2.2528 0-4.096-1.4336-4.7104-3.6864l-56.32-218.3168c-1.2288-4.9152-2.4576-9.4208-3.2768-13.312-1.024 4.7104-2.2528 9.216-3.2768 13.312L568.5248 649.216c-0.6144 2.2528-2.4576 3.6864-4.7104 3.6864H528.384c-0.4096 0.2048-0.6144 0.2048-0.8192 0.2048z m168.96-9.8304H722.944L793.6 366.592h-25.3952l-40.96 180.4288c-5.12 21.504-9.6256 42.3936-13.5168 62.0544-0.4096 2.4576-2.6624 4.096-4.9152 3.8912-2.4576 0-4.3008-1.8432-4.7104-4.3008-4.096-31.5392-11.0592-65.3312-20.48-100.7616l-37.0688-141.312h-35.0208l-49.7664 189.8496c-1.2288 4.5056-5.3248 22.3232-11.8784 52.8384-0.4096 2.2528-2.4576 3.8912-4.9152 3.8912-2.2528 0-4.3008-1.8432-4.7104-4.096-3.6864-21.2992-7.3728-40.5504-11.4688-58.5728L489.0624 366.592h-26.0096l68.1984 276.6848h28.2624l55.9104-214.6304c2.2528-8.6016 4.5056-19.0464 7.168-31.3344l0.4096-2.048c0.4096-2.2528 2.4576-3.8912 4.7104-3.8912 2.2528 0 4.3008 1.6384 4.7104 3.8912 0.6144 2.8672 2.2528 9.8304 4.9152 20.0704 1.024 3.8912 2.048 8.3968 3.4816 13.312l55.7056 214.6304z" fill="#333333" p-id="15198"></path><path d="M1008.0256 526.5408c-7.5776-11.6736-19.0464-21.504-34.4064-29.0816-10.6496-5.3248-30.5152-11.264-58.9824-18.432-28.672-6.7584-46.6944-13.7216-53.248-20.2752-7.168-6.5536-10.4448-15.1552-10.4448-25.3952 0-11.8784 4.9152-22.1184 14.5408-30.5152 9.6256-8.3968 25.3952-12.4928 46.6944-12.4928 20.48 0 36.0448 4.7104 46.6944 13.9264 10.4448 9.216 16.5888 22.9376 18.432 41.1648l33.9968-2.8672c-0.6144-16.7936-5.12-31.744-13.312-45.056s-19.6608-23.3472-34.6112-30.3104c-15.1552-6.7584-32.768-10.24-52.4288-10.24-18.0224 0-34.2016 3.2768-48.9472 9.6256-14.5408 6.5536-25.8048 16.1792-33.3824 28.672-7.7824 12.4928-11.4688 26.0096-11.4688 40.3456 0 13.312 3.072 25.1904 9.216 35.84 6.144 10.6496 15.7696 19.456 28.4672 26.8288 9.6256 5.5296 27.0336 11.4688 51.4048 17.8176 24.576 6.144 40.3456 10.8544 47.5136 13.9264 11.264 4.7104 19.2512 10.24 24.1664 16.7936 4.9152 6.7584 7.3728 14.5408 7.3728 23.552 0 8.8064-2.6624 16.9984-7.5776 24.576-5.12 7.5776-12.9024 13.5168-23.1424 17.6128-10.24 4.5056-22.1184 6.3488-35.6352 6.3488-15.1552 0-28.8768-2.6624-40.96-8.3968s-21.2992-13.1072-27.0336-22.3232-9.4208-20.8896-11.0592-35.4304l-33.3824 3.072c0.6144 19.2512 5.5296 36.4544 14.7456 51.6096 9.216 14.9504 22.1184 26.4192 38.5024 33.9968 16.1792 7.5776 36.4544 11.264 60.6208 11.264 19.2512 0 36.2496-3.6864 51.4048-11.264 15.1552-7.3728 27.0336-17.8176 35.2256-31.3344 7.9872-13.5168 12.0832-27.8528 12.0832-43.008s-3.6864-28.672-11.0592-40.5504z" fill="#333333" p-id="15199"></path><path d="M920.3712 658.0224c-24.7808 0-45.8752-3.8912-62.6688-11.6736-16.9984-7.7824-30.72-19.8656-40.5504-35.84-9.6256-15.7696-14.7456-33.9968-15.5648-54.0672 0-2.6624 1.8432-4.9152 4.5056-5.12l33.3824-3.072c2.6624-0.2048 5.12 1.6384 5.3248 4.3008 1.4336 13.312 4.9152 24.576 10.4448 33.3824 5.12 8.192 13.312 14.9504 24.7808 20.48 10.8544 5.3248 23.9616 7.9872 38.7072 7.9872 13.312 0 24.3712-2.048 33.5872-5.9392 9.4208-3.8912 16.5888-9.216 21.0944-15.9744 4.5056-6.7584 6.7584-14.1312 6.7584-21.7088 0-7.9872-2.048-14.7456-6.3488-20.6848-4.3008-5.7344-11.4688-10.8544-21.9136-15.1552-6.7584-2.8672-22.528-7.5776-46.8992-13.7216-25.1904-6.5536-42.5984-12.6976-52.6336-18.432-13.5168-7.7824-23.7568-17.408-30.3104-28.4672-6.5536-11.264-10.0352-24.1664-10.0352-38.2976 0-15.36 4.096-29.9008 12.288-43.008 7.7824-13.1072 19.8656-23.552 35.4304-30.72 15.7696-6.7584 32.5632-10.24 50.9952-10.24 20.48 0 38.7072 3.4816 54.272 10.6496 15.7696 7.168 28.0576 18.0224 36.864 32.1536 8.6016 13.9264 13.312 29.9008 13.9264 47.5136 0.2048 2.6624-1.8432 4.9152-4.5056 5.12l-33.9968 2.8672c-2.6624 0.2048-5.12-1.6384-5.3248-4.5056-1.6384-16.7936-7.168-29.4912-16.7936-37.888-9.6256-8.3968-24.1664-12.6976-43.4176-12.6976-20.0704 0-34.6112 3.8912-43.4176 11.4688-8.6016 7.5776-12.9024 16.1792-12.9024 26.8288 0 9.216 2.8672 16.1792 8.8064 21.9136l0.2048 0.2048c4.096 4.096 16.384 10.8544 50.9952 19.0464 30.72 7.5776 49.7664 13.5168 60.0064 18.6368 15.9744 7.9872 28.2624 18.2272 36.2496 30.5152 0 0.2048 0.2048 0.2048 0.2048 0.4096 7.9872 12.9024 11.6736 27.2384 11.6736 43.4176 0 15.7696-4.3008 31.1296-12.9024 45.6704-8.8064 14.5408-21.2992 25.6-37.2736 33.3824-15.5648 7.3728-32.9728 11.264-53.0432 11.264z m-108.544-97.4848c1.2288 16.5888 5.9392 31.5392 13.9264 44.6464 8.8064 14.336 21.0944 25.1904 36.2496 32.1536 15.36 7.168 35.0208 10.8544 58.5728 10.8544 18.432 0 34.6112-3.4816 49.3568-10.6496 14.1312-6.7584 25.3952-16.7936 33.1776-29.4912 7.5776-12.9024 11.4688-26.4192 11.4688-40.5504 0-14.336-3.2768-26.8288-10.24-38.0928 0 0 0-0.2048-0.2048-0.2048-6.9632-10.8544-18.0224-20.0704-32.5632-27.4432-9.6256-4.9152-28.0576-10.4448-57.9584-18.0224-29.9008-7.168-47.9232-14.1312-55.5008-21.504-7.7824-7.3728-11.8784-17.2032-11.8784-28.8768 0-13.312 5.5296-24.7808 16.384-34.2016 10.6496-9.216 27.4432-13.7216 49.7664-13.7216 21.504 0 38.2976 5.12 49.7664 15.1552 10.4448 9.216 16.9984 22.528 19.456 39.5264l24.576-2.048c-1.2288-13.9264-5.3248-26.8288-12.288-38.0928-7.7824-12.4928-18.6368-22.1184-32.5632-28.4672-14.336-6.3488-31.3344-9.6256-50.3808-9.6256-17.2032 0-32.5632 3.072-47.104 9.4208-13.7216 6.3488-24.1664 15.36-31.1296 26.8288-7.3728 11.8784-10.8544 24.1664-10.8544 37.888 0 12.288 2.8672 23.552 8.6016 33.3824 5.7344 9.8304 14.5408 18.0224 26.624 24.9856 9.216 5.3248 26.2144 11.0592 50.176 17.408 25.1904 6.3488 40.96 11.0592 48.128 14.1312 12.0832 4.9152 20.6848 11.0592 26.0096 18.432 5.5296 7.7824 8.192 16.384 8.192 26.624 0 9.6256-2.8672 18.6368-8.3968 27.2384-5.7344 8.3968-14.336 14.9504-25.3952 19.456-10.4448 4.5056-22.7328 6.7584-37.4784 6.7584-16.384 0-30.72-3.072-43.008-8.8064-13.312-6.3488-22.9376-14.1312-29.0816-24.1664-5.5296-9.0112-9.216-19.8656-11.0592-32.5632l-23.3472 1.6384z" fill="#333333" p-id="15200"></path></svg>