<svg t="1744216625799" class="icon" viewBox="0 0 1024 1024" version="1.1" xmlns="http://www.w3.org/2000/svg" p-id="17521" width="200" height="200"><path d="M16 142.397h716.791v865.59H16.001z" fill="#FDBF5E" p-id="17522"></path><path d="M732.791 1023.988H16.001c-9.601 0-16.001-6.4-16.001-16.001v-865.59c0-9.6 6.4-16 16-16h716.791c9.6 0 16 6.4 16 16v865.59c0 9.6-6.4 16-16 16z m-700.792-32H716.79v-833.59H32v833.59z" fill="#193651" p-id="17523"></path><path d="M80.8 206.718h588.793v737.59H80.799z" fill="#FFFFFF" p-id="17524"></path><path d="M151.998 799.99h32v32h-32z m83.198 0h32v32h-32z m81.6 0h32v32h-32zM399.994 799.99h32v32h-32z m83.2 0h32v32h-32z m81.598 0h32v32h-32z" fill="#193651" p-id="17525"></path><path d="M185.598 83.198h375.995v132.799H185.598z" fill="#FFFFFF" p-id="17526"></path><path d="M563.194 231.997H185.598c-9.6 0-16-6.4-16-16V83.198c0-9.6 6.4-16 16-16h375.995c9.601 0 16 6.4 16 16v132.799c1.6 8-6.401 16-14.4 16z m-361.597-31.999h343.996v-100.8H201.597v100.8z" fill="#193651" p-id="17527"></path><path d="M307.195 83.198a67.2 67.2 0 1 0 134.4 0 67.2 67.2 0 1 0-134.4 0z" fill="#FFFFFF" p-id="17528"></path><path d="M374.395 166.398c-46.4 0-83.198-36.798-83.198-83.198S327.995 0 374.395 0s83.198 36.799 83.198 83.198c0.002 44.801-36.799 83.2-83.198 83.2z m0-134.399c-28.8 0-51.2 22.4-51.2 51.2s22.401 51.198 51.2 51.198c28.8 0 51.199-22.4 51.199-51.199S403.195 32 374.394 32z m209.599 310.397H166.398c-9.6 0-16-6.4-16-16.001s6.4-16 16-16h417.596c9.6 0 16 6.399 16 16s-8.002 16-16 16z m0 97.598H166.398c-9.6 0-16-6.4-16-16 0-9.602 6.4-16.001 16-16.001h417.596c9.6 0 16 6.4 16 16-0.002 9.601-8.002 16-16 16z m0 99.199H166.398c-9.6 0-16-6.4-16-16.001 0-9.6 6.4-16 16-16h417.596c9.6 0 16 6.4 16 16-0.002 8.002-8.002 16-16 16z m0 97.6H166.398c-9.6 0-16-6.4-16-16 0-9.601 6.4-16.001 16-16.001h417.596c9.6 0 16 6.4 16 16-0.002 8-8.002 16.001-16 16.001z m0 97.598H166.398c-9.6 0-16-6.4-16-16 0-9.601 6.4-16 16-16h417.596c9.6 0 16 6.399 16 16-0.002 8-8.002 16-16 16z" fill="#193651" p-id="17529"></path><path d="M841.589 867.19l83.2 116.798 83.198-116.798V118.398H841.589z" fill="#4FBF9F" p-id="17530"></path><path d="M924.789 1011.188L825.59 871.989V100.8h198.398v771.19l-99.2 139.199z m-67.2-148.8l67.2 94.4 67.2-94.4V134.4h-134.4v727.99z" fill="#193651" p-id="17531"></path><path d="M887.988 852.79l36.8 48 36.8-48V118.398h-73.6zM883.189 16h83.198v102.398h-83.198z" fill="#FFFFFF" p-id="17532"></path><path d="M982.388 134.4h-115.2V0h115.2v134.4z m-83.199-32.002h51.2V31.999h-51.2v70.399z m25.6 921.59c-9.601 0-16-6.4-16-16.001v-23.999c0-9.6 6.399-16 16-16s16 6.4 16 16v23.999c-0.002 9.6-8 16-16 16zM908.788 396.795h32v32h-32z m0 88h32v32h-32z m0 86.397h32v32h-32z" fill="#193651" p-id="17533"></path></svg>