<svg t="1745732367739" class="icon" viewBox="0 0 1024 1024" version="1.1" xmlns="http://www.w3.org/2000/svg" p-id="6349" width="200" height="200"><path d="M320 303.36h384v64H320zM320 463.36h384v64H320z" fill="#07cf38" p-id="6350" data-spm-anchor-id="a313x.search_index.0.i3.3dfb3a81enBwb8" class="selected"></path><path d="M832 128H192c-53.12 0-96 42.88-96 96v384c0 53.12 42.88 96 96 96h192v-64H192c-17.92 0-32-14.08-32-32v-384c0-17.92 14.08-32 32-32h640c17.92 0 32 14.08 32 32v384c0 17.92-14.08 32-32 32h-170.24l-289.92 204.16 37.12 51.84 273.28-192.64H832c53.12 0 96-42.88 96-96v-384C928 170.88 885.12 128 832 128z" fill="#07cf38" p-id="6351" data-spm-anchor-id="a313x.search_index.0.i2.3dfb3a81enBwb8" class="selected"></path></svg>