<svg t="1758100588177" class="icon" viewBox="0 0 1024 1024" version="1.1" xmlns="http://www.w3.org/2000/svg" p-id="19678" width="200" height="200"><path d="M0 448h192v384H0z" fill="#039C23" p-id="19679"></path><path d="M256 256h192v576H256z" fill="#FFB115" p-id="19680"></path><path d="M1024 736v-64l-70.4-12.8c-6.4-19.2-12.8-41.6-25.6-57.6l41.6-57.6-44.8-44.8-57.6 41.6c-16-9.6-38.4-19.2-57.6-22.4L800 448h-64l-12.8 70.4c-19.2 6.4-41.6 12.8-57.6 22.4L608 499.2 563.2 544l41.6 57.6c-9.6 16-19.2 38.4-25.6 57.6L512 672v64l70.4 12.8c6.4 19.2 12.8 41.6 25.6 57.6L566.4 864l44.8 44.8 57.6-41.6c16 9.6 38.4 19.2 57.6 22.4L736 960h64l12.8-70.4c19.2-6.4 41.6-12.8 57.6-22.4l57.6 41.6 44.8-44.8-41.6-57.6c9.6-16 19.2-38.4 25.6-57.6L1024 736z m-256 32c-35.2 0-64-28.8-64-64s28.8-64 64-64 64 28.8 64 64-28.8 64-64 64z" fill="#1177D7" p-id="19681"></path><path d="M704 390.4V64h-192v448c44.8-60.8 115.2-105.6 192-121.6z" fill="#D11C1C" p-id="19682"></path></svg>