<svg t="1752598653528" class="icon" viewBox="0 0 1024 1024" version="1.1" xmlns="http://www.w3.org/2000/svg" p-id="5643" width="200" height="200"><path d="M511.971135 99.111167C249.829943 99.111167 36.547657 306.468945 36.547657 561.515355c0 91.793302 27.647704 180.514637 79.944286 256.655536 10.459317 15.140409 31.451092 19.163223 47.103496 9.069617a32.475081 32.475081 0 0 0 9.362185-45.86008A386.848427 386.848427 0 0 1 104.569785 561.515355c0-218.548516 182.782042-396.356896 407.474492-396.356896 224.69245 0 407.474491 177.808381 407.474491 396.430038 0 218.548516-182.782042 396.356896-407.474491 396.356896a413.76471 413.76471 0 0 1-226.594144-66.998139 34.596201 34.596201 0 0 0-47.103495 9.069617 32.475081 32.475081 0 0 0 9.289043 45.786938A482.737685 482.737685 0 0 0 511.971135 1023.992686c262.141191 0 475.423478-207.43092 475.423477-462.477331 0-254.973268-213.282286-462.404189-475.423477-462.404188zM432.758269 66.050949h158.425731a33.49907 33.49907 0 0 0 34.011064-32.987075A33.49907 33.49907 0 0 0 591.184 0.003657H432.758269a33.49907 33.49907 0 0 0-34.011064 33.060217c0 18.212376 15.213551 32.987075 34.011064 32.987075z m496.634679 166.544502a34.376775 34.376775 0 0 0 48.054342 0 32.401939 32.401939 0 0 0 0-46.810927l-67.948986-65.974151a34.596201 34.596201 0 0 0-47.9812 0 32.401939 32.401939 0 0 0 0 46.664643l67.875844 66.120435z" fill="#388CEB" p-id="5644"></path><path d="M512.263703 253.221515a33.49907 33.49907 0 0 0-33.937922 33.060218v286.278075c0 13.896994 8.996475 26.331146 22.381474 31.012239a34.523059 34.523059 0 0 0 37.668168-9.874179l113.150788-132.094585a32.401939 32.401939 0 0 0-4.315382-46.518359 34.596201 34.596201 0 0 0-47.834916 4.169098l-53.101146 62.024479V286.281733a33.49907 33.49907 0 0 0-34.011064-33.060218z" fill="#E78E00" p-id="5645"></path></svg>