<svg t="1740218690856" class="icon" viewBox="0 0 1024 1024" version="1.1" xmlns="http://www.w3.org/2000/svg" p-id="40509" width="200" height="200"><path d="M512 912.695652c221.295304 0 400.695652-179.400348 400.695652-400.695652S733.295304 111.304348 512 111.304348 111.304348 290.704696 111.304348 512s179.400348 400.695652 400.695652 400.695652z" fill="#0B77E3" fill-opacity=".2" p-id="40510"></path><path d="M367.304348 100.173913m11.130435 0l267.130434 0q11.130435 0 11.130435 11.130435l0 801.391304q0 11.130435-11.130435 11.130435l-267.130434 0q-11.130435 0-11.130435-11.130435l0-801.391304q0-11.130435 11.130435-11.130435Z" fill="#A6D2FF" p-id="40511"></path><path d="M367.304348 111.193043v801.613914c0 5.977043 5.008696 11.01913 11.163826 11.01913h267.063652A11.108174 11.108174 0 0 0 656.695652 912.806957V111.193043c0-5.977043-5.008696-11.01913-11.163826-11.01913H378.468174A11.108174 11.108174 0 0 0 367.304348 111.193043z m-22.26087 0A33.369043 33.369043 0 0 1 378.468174 77.913043h267.063652A33.424696 33.424696 0 0 1 678.956522 111.193043v801.613914A33.369043 33.369043 0 0 1 645.531826 946.086957H378.468174A33.424696 33.424696 0 0 1 345.043478 912.806957V111.193043z" fill="#005CB9" p-id="40512"></path><path d="M512 779.130435c-147.533913 0-267.130435-119.596522-267.130435-267.130435s119.596522-267.130435 267.130435-267.130435 267.130435 119.596522 267.130435 267.130435-119.596522 267.130435-267.130435 267.130435z" fill="#40A0FF" p-id="40513"></path><path d="M512 723.478261c116.791652 0 211.478261-94.686609 211.478261-211.478261s-94.686609-211.478261-211.478261-211.478261-211.478261 94.686609-211.478261 211.478261 94.686609 211.478261 211.478261 211.478261z" fill="#FFFFFF" p-id="40514"></path><path d="M301.167304 528.695652A214.394435 214.394435 0 0 1 300.521739 512c0-116.791652 94.686609-211.478261 211.478261-211.478261s211.478261 94.686609 211.478261 211.478261c0 5.62087-0.222609 11.186087-0.645565 16.695652C714.317913 419.706435 623.181913 333.913043 512 333.913043s-202.317913 85.793391-210.832696 194.782609z" fill="#000000" opacity=".1" p-id="40515"></path><path d="M417.391304 155.826087a11.130435 11.130435 0 0 1 0-22.26087h189.217392a11.130435 11.130435 0 0 1 0 22.26087h-189.217392z m0 55.652174a11.130435 11.130435 0 0 1 0-22.26087h189.217392a11.130435 11.130435 0 0 1 0 22.26087h-189.217392z m0 623.304348a11.130435 11.130435 0 0 1 0-22.26087h189.217392a11.130435 11.130435 0 0 1 0 22.26087h-189.217392z m0 55.652174a11.130435 11.130435 0 0 1 0-22.26087h189.217392a11.130435 11.130435 0 0 1 0 22.26087h-189.217392z" fill="#005CB9" p-id="40516"></path><path d="M512.200348 560.584348a50.086957 50.086957 0 1 0 0-100.173913 50.086957 50.086957 0 0 0 0 100.173913z m0-22.26087a27.826087 27.826087 0 1 1 0-55.652174 27.826087 27.826087 0 0 1 0 55.652174zM512 779.130435c147.533913 0 267.130435-119.596522 267.130435-267.130435S659.533913 244.869565 512 244.869565 244.869565 364.466087 244.869565 512s119.596522 267.130435 267.130435 267.130435z m0 22.260869c-159.833043 0-289.391304-129.558261-289.391304-289.391304s129.558261-289.391304 289.391304-289.391304 289.391304 129.558261 289.391304 289.391304-129.558261 289.391304-289.391304 289.391304z m0-77.913043c116.791652 0 211.478261-94.686609 211.478261-211.478261s-94.686609-211.478261-211.478261-211.478261-211.478261 94.686609-211.478261 211.478261 94.686609 211.478261 211.478261 211.478261z m0 22.260869c-129.090783 0-233.73913-104.648348-233.73913-233.73913s104.648348-233.73913 233.73913-233.73913 233.73913 104.648348 233.73913 233.73913-104.648348 233.73913-233.73913 233.73913z m124.560696-364.210087l-97.502609 93.406609a11.130435 11.130435 0 0 0 15.393391 16.072348l97.502609-93.406609a11.130435 11.130435 0 1 0-15.393391-16.072348zM481.669565 478.386087l-85.292522-65.936696a11.130435 11.130435 0 1 0-13.623652 17.608348l85.292522 65.936696a11.130435 11.130435 0 1 0 13.623652-17.608348z" fill="#005CB9" p-id="40517"></path></svg>