<svg t="1753440054902" class="icon" viewBox="0 0 1024 1024" version="1.1" xmlns="http://www.w3.org/2000/svg" p-id="77386" width="200" height="200"><path d="M91.89743573 7.87692267h840.20512854a84.02051307 84.02051307 0 0 1 84.02051306 84.02051306v840.20512854a84.02051307 84.02051307 0 0 1-84.02051306 84.02051306H91.89743573a84.02051307 84.02051307 0 0 1-84.02051306-84.02051306v-840.20512854a84.02051307 84.02051307 0 0 1 84.02051306-84.02051306z m525.96841067 331.04082133l77.29887147-81.4998976a211.31158933 211.31158933 0 0 0-79.39938454-47.05148693 301.21353813 301.21353813 0 0 0-171.8219488-3.36082134 216.35282027 216.35282027 0 0 0-70.15712853 33.1881024c-20.41698453 14.87163093-36.96902613 33.44016427-49.5721024 55.8736416-12.60307733 22.43347733-18.90461547 48.98395947-18.90461547 79.81948694 0 35.28861547 6.9737024 63.43548693 21.00512854 84.44061546 14.03142613 21.00512853 31.3396512 37.80923093 52.09271786 50.41230827 20.75306667 12.60307733 43.4386048 22.5174976 68.05661547 29.82728107 24.61801067 7.30978453 47.3035488 14.9556512 68.05661547 23.1056416 20.75306667 8.14998933 38.0612928 18.06441067 52.09271786 29.82728213 14.03142613 11.76287147 21.00512853 28.56697387 21.00512854 50.4123072 0 13.44328213-3.10875947 25.3741952-9.24225707 35.70871787a78.97928213 78.97928213 0 0 1-24.3659488 25.62625706c-10.08246187 6.72164053-21.25718933 11.76287147-33.6082048 15.12369174a142.83487147 142.83487147 0 0 1-103.76533333-11.34276907A133.5085952 133.5085952 0 0 1 365.8043072 663.23692267l-79.81948693 77.29887253c24.61801067 29.15511787 54.02518933 49.82416427 88.2215392 62.17517867 34.1963488 12.35101547 69.73702613 18.48451307 106.7060512 18.48451306 29.15511787 0 56.88188693-3.94896427 83.1803072-11.76287146 26.29842027-7.8139072 49.40406187-19.57677973 69.31692266-35.28861547 19.91286187-15.71183573 35.70871787-35.456656 47.4715904-59.23446187 11.76287147-23.7778048 17.6443072-51.67261547 17.6443072-83.6004096 0-35.28861547-6.9737024-63.60352853-21.00512746-84.86071786a168.29308693 168.29308693 0 0 0-52.09271787-51.25251307 276.6795488 276.6795488 0 0 0-68.05661547-30.24738453 967.4962048 967.4962048 0 0 1-68.05661546-22.6855392 206.52242027 206.52242027 0 0 1-52.09271787-27.72676907c-14.03142613-10.6706048-21.00512853-26.04635947-21.00512853-46.21128213 0-13.44328213 2.77267733-25.03811307 8.4020512-34.868512a70.2411488 70.2411488 0 0 1 22.26543573-23.9458464c9.242256-6.1334976 19.57677973-10.6706048 31.0875904-13.44328214a156.95031787 156.95031787 0 0 1 94.94317867 7.141744c18.73657387 7.5618464 33.7762464 19.49275947 44.95097493 35.70871787z" fill="#d32f2f" p-id="77387" data-spm-anchor-id="a313x.search_index.0.i33.2c293a81kX3Zwt" class="selected"></path></svg>