<svg t="1742399154492" class="icon" viewBox="0 0 1024 1024" version="1.1" xmlns="http://www.w3.org/2000/svg" p-id="4330" width="200" height="200"><path d="M512 230.4c-217.6 0-396.8 179.2-396.8 396.8C115.2 844.8 294.4 1024 512 1024c217.6 0 396.8-179.2 396.8-396.8 0-217.6-179.2-396.8-396.8-396.8z m172.8 371.2l-64 64c-6.4 6.4-6.4 12.8-6.4 12.8l12.8 89.6c0 12.8-12.8 25.6-25.6 19.2l-83.2-44.8h-19.2l-83.2 44.8c-12.8 6.4-25.6-6.4-25.6-19.2l12.8-89.6c0-6.4 0-12.8-6.4-12.8l-64-64c-6.4-6.4 0-25.6 19.2-25.6l89.6-12.8c6.4 0 12.8-6.4 12.8-12.8l38.4-83.2c6.4-12.8 25.6-12.8 32 0l38.4 83.2c0 6.4 6.4 6.4 12.8 12.8l96 12.8c19.2 0 25.6 19.2 12.8 25.6zM793.6 262.4L915.2 32c12.8-19.2 6.4-32-12.8-32h-236.8c-19.2 0-38.4 12.8-44.8 32L544 166.4c96 6.4 179.2 44.8 249.6 96zM230.4 262.4C300.8 211.2 384 172.8 480 166.4L409.6 32C396.8 12.8 377.6 0 358.4 0H121.6c-19.2 0-25.6 12.8-12.8 32l121.6 230.4z" p-id="4331"></path></svg>