<svg t="1747388806544" class="icon" viewBox="0 0 1024 1024" version="1.1" xmlns="http://www.w3.org/2000/svg" p-id="15620" width="200" height="200"><path d="M210.645333 256.085333a42.666667 42.666667 0 0 1 45.269334 39.850667l33.109333 517.461333a42.666667 42.666667 0 0 0 42.581333 39.936h360.832a42.666667 42.666667 0 0 0 42.581334-39.936l33.109333-517.461333a42.666667 42.666667 0 0 1 85.12 5.461333l-33.066667 517.418667A128 128 0 0 1 692.48 938.666667H331.605333a128 128 0 0 1-127.744-119.850667L170.794667 301.397333a42.666667 42.666667 0 0 1 39.850666-45.312z" fill="#f9341b" p-id="15621" data-spm-anchor-id="a313x.search_index.0.i8.3aa73a81pZ1xAj" class="selected"></path><path d="M384 170.666667a42.666667 42.666667 0 0 0-42.666667 42.666666v42.666667h341.333334V213.333333a42.666667 42.666667 0 0 0-42.666667-42.666666H384zM256 213.333333a128 128 0 0 1 128-128h256a128 128 0 0 1 128 128v85.333334a42.666667 42.666667 0 0 1-42.666667 42.666666H298.666667a42.666667 42.666667 0 0 1-42.666667-42.666666V213.333333z" fill="#f9341b" p-id="15622" data-spm-anchor-id="a313x.search_index.0.i10.3aa73a81pZ1xAj" class="selected"></path><path d="M85.333333 298.666667a42.666667 42.666667 0 0 1 42.666667-42.666667h768a42.666667 42.666667 0 1 1 0 85.333333H128a42.666667 42.666667 0 0 1-42.666667-42.666666zM426.666667 768a42.666667 42.666667 0 0 1-42.666667-42.666667v-256a42.666667 42.666667 0 1 1 85.333333 0v256a42.666667 42.666667 0 0 1-42.666666 42.666667zM597.333333 768a42.666667 42.666667 0 0 1-42.666666-42.666667v-256a42.666667 42.666667 0 0 1 85.333333 0v256a42.666667 42.666667 0 0 1-42.666667 42.666667z" fill="#f9341b" p-id="15623" data-spm-anchor-id="a313x.search_index.0.i9.3aa73a81pZ1xAj" class="selected"></path></svg>