<svg t="1742637305478" class="icon" viewBox="0 0 1024 1024" version="1.1" xmlns="http://www.w3.org/2000/svg" p-id="30448" width="200" height="200"><path d="M784.384 739.328q208.896 73.728 208.896 124.928l0 108.544-962.56 0 0-108.544q0-51.2 208.896-124.928 96.256-34.816 131.072-70.656t34.816-97.28q0-22.528-22.528-50.176t-32.768-74.752q-2.048-12.288-9.216-18.432t-14.336-8.192-14.336-17.408-9.216-44.032q0-16.384 5.12-26.624t9.216-12.288l4.096-4.096q-8.192-51.2-12.288-90.112-4.096-55.296 41.984-114.688t160.768-59.392 161.792 59.392 40.96 114.688l-12.288 90.112q18.432 8.192 18.432 43.008-2.048 28.672-9.216 44.032t-14.336 17.408-14.336 8.192-9.216 18.432q-8.192 49.152-31.744 75.776t-23.552 49.152q0 61.44 35.84 97.28t130.048 70.656z" p-id="30449"></path></svg>