<svg t="1742636800801" class="icon" viewBox="0 0 1024 1024" version="1.1" xmlns="http://www.w3.org/2000/svg" p-id="20589" width="200" height="200"><path d="M0 512C0 229.23264 229.23264 0 512 0s512 229.23264 512 512-229.23264 512-512 512S0 794.76736 0 512z m526.55104-1.152a128.384 128.384 0 0 0 112.64-112.512A127.872 127.872 0 0 0 512 256c-70.69696 0-128 57.17504-128 127.78496v0.04608a127.91296 127.91296 0 0 0 142.55104 127.01696zM512 548.18304c-85.41696 0-256 48.896-256 146.048v54.784c0 10.112 8.192 18.25792 18.26304 18.25792h475.43296a18.26304 18.26304 0 0 0 18.26304-18.25792v-54.784c0.04096-97.07008-170.54208-146.048-255.95904-146.048z" fill="#1296db" p-id="20590" data-spm-anchor-id="a313x.search_index.0.i10.19283a81PGfw3Y" class="selected"></path></svg>