<svg t="1747754783661" class="icon" viewBox="0 0 1024 1024" version="1.1" xmlns="http://www.w3.org/2000/svg" p-id="9620" width="200" height="200"><path d="M840.309886 574.687738 840.309886 123.988896c0-16.468067-13.349029-29.846772-29.846772-29.846772-16.496719 0-29.845749 13.378705-29.845749 29.846772l0 450.698842c-68.116377 13.859659-119.386064 74.018807-119.386064 146.244782 0 72.166623 51.269687 132.385123 119.386064 146.20078l0 32.877805c0 16.496719 13.349029 29.845749 29.845749 29.845749 16.497743 0 29.846772-13.349029 29.846772-29.845749l0-32.877805c68.115354-13.815657 119.386064-74.034157 119.386064-146.20078C959.69595 648.706545 908.42524 588.547397 840.309886 574.687738zM810.463114 810.471812c-49.432853 0-89.539292-40.10644-89.539292-89.539292 0-49.433876 40.10644-89.539292 89.539292-89.539292 49.433876 0 89.539292 40.105417 89.539292 89.539292C900.002406 770.365372 859.895967 810.471812 810.463114 810.471812zM541.845237 156.838048l0-32.849152c0-16.468067-13.349029-29.846772-29.845749-29.846772-16.497743 0-29.846772 13.378705-29.846772 29.846772l0 32.849152c-68.116377 13.84431-119.386064 74.033134-119.386064 146.229432s51.269687 132.385123 119.386064 146.229432L482.152716 900.011104c0 16.496719 13.349029 29.845749 29.846772 29.845749 16.496719 0 29.845749-13.349029 29.845749-29.845749L541.845237 449.297936c68.116377-13.84431 119.386064-74.033134 119.386064-146.229432S609.961614 170.682357 541.845237 156.838048zM511.999488 392.606773c-49.433876 0-89.539292-40.076764-89.539292-89.539292 0-49.433876 40.105417-89.539292 89.539292-89.539292 49.432853 0 89.539292 40.105417 89.539292 89.539292C601.538781 352.530009 561.432341 392.606773 511.999488 392.606773zM243.381611 455.301673 243.381611 123.988896c0-16.468067-13.349029-29.846772-29.846772-29.846772-16.496719 0-29.845749 13.378705-29.845749 29.846772l0 331.312778c-68.116377 13.845333-119.386064 74.034157-119.386064 146.244782 0 72.167646 51.269687 132.385123 119.386064 146.20078L183.689091 900.011104c0 16.496719 13.349029 29.845749 29.845749 29.845749 16.497743 0 29.846772-13.349029 29.846772-29.845749L243.381611 747.747235c68.115354-13.815657 119.385041-74.033134 119.385041-146.20078C362.766652 529.33583 311.496965 469.147006 243.381611 455.301673zM213.534839 691.085748c-49.432853 0-89.539292-40.105417-89.539292-89.539292 0-49.447179 40.10644-89.554642 89.539292-89.554642 49.433876 0 89.539292 40.10644 89.539292 89.554642C303.074132 650.980331 262.967692 691.085748 213.534839 691.085748z" p-id="9621"></path></svg>