<svg t="1745997500481" class="icon" viewBox="0 0 1024 1024" version="1.1" xmlns="http://www.w3.org/2000/svg" p-id="4431" width="200" height="200"><path d="M97.516499 0h243.876538q97.516499 0 97.516499 97.516499v243.876538q0 97.516499-97.516499 97.516499H97.516499Q0 438.909536 0 341.393037V97.516499Q0 0 97.516499 0zM97.516499 536.426035h243.876538q97.516499 0 97.516499 97.516499v243.876538q0 97.516499-97.516499 97.516499H97.516499Q0 975.335571 0 877.819072v-243.876538q0-97.516499 97.516499-97.516499zM633.999395 0h243.819677q97.516499 0 97.516499 97.516499v243.876538q0 97.516499-97.516499 97.516499h-243.876538q-97.516499 0-97.516499-97.516499V97.516499Q536.426035 0 633.999395 0zM487.639355 731.515894a243.933399 243.933399 0 0 1 243.876539-243.876539 243.933399 243.933399 0 0 1 243.819677 243.876539 243.933399 243.933399 0 0 1-243.819677 243.819677 243.933399 243.933399 0 0 1-243.876539-243.819677z m97.57336 0a146.473762 146.473762 0 0 0 146.303179 146.303178 146.473762 146.473762 0 0 0 146.303178-146.303178 146.473762 146.473762 0 0 0-146.303178-146.303179 146.473762 146.473762 0 0 0-146.303179 146.303179z" p-id="4432"></path><path d="M843.304486 912.276797l97.57336 97.516499a48.78668 48.78668 0 0 0 68.91545-68.91545l-97.516499-97.57336a48.78668 48.78668 0 0 0-68.972311 68.972311z" p-id="4433"></path></svg>